<svg width="44" height="47" viewBox="0 0 44 47" fill="none" xmlns="http://www.w3.org/2000/svg">
<path d="M12.7908 22.9427L12.8159 22.9866L12.8453 23.0278L14.1672 24.8775L14.1859 24.9037L14.2063 24.9286L15.5237 26.5418L16.5135 27.7882C16.6176 27.9193 16.7318 28.0421 16.8551 28.1553L18.4902 29.6568L20.2526 31.2753L20.2893 31.309L20.3292 31.3389L21.8713 32.4949L21.8931 32.5113L21.9158 32.5264L22.8007 33.1174C24.0942 33.9813 25.8216 33.7899 26.8947 32.6637L26.9403 32.6158L27.8216 31.691L28.4825 30.9974L28.726 30.7417C28.7463 30.7205 28.7712 30.7044 28.7989 30.6947C28.8385 30.6809 28.8816 30.6809 28.9211 30.6947C28.9488 30.7044 28.9738 30.7205 28.994 30.7417L36.4414 38.5578L36.3965 38.7464C36.3473 38.9528 36.2443 39.1425 36.0979 39.2961L33.4234 42.103L32.4734 43.1001C32.4184 43.1577 32.3578 43.2098 32.2926 43.2555L31.3205 43.9356C31.2589 43.9787 31.1934 44.0159 31.1248 44.0468L29.9387 44.5803C29.878 44.6076 29.8152 44.6297 29.7509 44.6466L28.4401 44.9905C28.3407 45.0166 28.2384 45.0298 28.1356 45.0298H26.7594C26.6427 45.0298 26.5266 45.0128 26.4147 44.9793L25.4551 44.6915C25.3561 44.6618 25.2614 44.6195 25.1732 44.5655L22.7991 43.112L18.889 40.3763L14.9873 37.1914L11.7396 34.0102L8.70337 30.5961L6.97318 28.3263L5.66032 26.4892L4.34788 24.6526L2.84639 22.4015L1.45153 19.6828C1.40762 19.5972 1.37416 19.5067 1.35187 19.4131L1.03266 18.073C1.01096 17.9819 1 17.8886 1 17.795V16.3773C1 16.3143 1.00497 16.2513 1.01485 16.1891L1.16578 15.2387C1.18105 15.1425 1.20797 15.0486 1.24593 14.9589L1.99918 13.1803L2.49787 12.308C2.54595 12.2239 2.60404 12.1459 2.67087 12.0757L3.36764 11.3445L5.791 8.80118L6.6092 7.94248C6.68614 7.86173 6.78117 7.80041 6.88645 7.76358L6.98998 7.72737C6.99618 7.7252 7.00269 7.72409 7.00926 7.72409C7.01871 7.72409 7.02801 7.72638 7.03638 7.73078L7.06958 7.7482C7.08991 7.75886 7.10835 7.77278 7.12418 7.78939L14.3308 15.3528C14.3548 15.3779 14.3746 15.4066 14.3895 15.438C14.4105 15.482 14.4214 15.5302 14.4214 15.5791V15.6962C14.4214 15.9135 14.3377 16.1226 14.1878 16.2799L12.5266 18.0234C11.5494 19.0489 11.3917 20.605 12.1403 21.8049L12.7908 22.9427Z" stroke="white" stroke-width="2"/>
<path d="M19.9847 21.498L21.228 22.8028L21.2694 22.8463L21.32 22.8788L24.4454 24.8833L22.2957 25.6891L22.2807 25.6947L22.2661 25.7013L21.0603 26.2436C20.9035 26.3142 20.7316 26.3509 20.5587 26.3509C20.423 26.3509 20.2875 26.328 20.16 26.2834L20.0803 26.2555C19.9526 26.2108 19.8374 26.1365 19.7441 26.0386L19.6858 25.9774C19.6347 25.9238 19.5966 25.8592 19.5741 25.7887C19.5 25.5552 19.4852 25.3069 19.531 25.0662L19.5476 24.9792L19.6578 24.4012L19.6613 24.3823L19.6635 24.3633L19.9847 21.498Z" stroke="white"/>
<path d="M17.5455 13.2542L17.5466 13.237V13.2199C17.5466 5.4788 24.4104 1.22409 30.1606 1.22409C37.191 1.22409 42.5596 7.1031 42.5596 13.2199C42.5596 19.3654 37.8082 25.447 30.1606 25.447C22.4751 25.447 17.1368 19.1927 17.5455 13.2542Z" stroke="white"/>
<path d="M28.8664 18.0857L28.849 18.0948L28.8323 18.1052L27.8408 18.7249C27.7755 18.7657 27.7001 18.7874 27.6231 18.7874C27.491 18.7874 27.3669 18.7238 27.2897 18.6166L27.1157 18.3749C26.9941 18.206 26.9287 18.0032 26.9287 17.7951V17.0127V16.3899C26.9287 16.0169 26.9866 15.6462 27.1003 15.2909L27.1122 15.2537C27.2718 14.7547 27.5435 14.2988 27.9063 13.9208C28.1027 13.7162 28.3237 13.5366 28.5642 13.3863L29.0263 13.0975C29.206 12.9851 29.4018 12.9008 29.6069 12.8474C29.9184 12.7662 30.2444 12.7582 30.5594 12.8238L30.6542 12.8436C30.9434 12.9038 31.2196 13.0148 31.4701 13.1714L31.776 13.3626C32.0417 13.5287 32.2858 13.727 32.5028 13.953C32.8531 14.318 33.127 14.7493 33.3084 15.2216L33.3173 15.2448C33.4148 15.4988 33.4856 15.7622 33.5286 16.0308L33.5813 16.3601C33.6495 16.7866 33.6427 17.2218 33.5613 17.6461L33.5057 17.9358C33.4824 18.0571 33.4435 18.1749 33.3901 18.2862L33.3211 18.4301C33.3009 18.472 33.2743 18.5105 33.242 18.544C33.132 18.6586 32.9687 18.7048 32.815 18.6648L32.5342 18.5917C32.4663 18.574 32.4005 18.5486 32.3383 18.5162L32.2493 18.4699C32.1304 18.408 32.0225 18.3271 31.9297 18.2304C31.6856 17.9761 31.3847 17.7832 31.0517 17.6676L30.904 17.6163C30.7274 17.555 30.5419 17.5237 30.355 17.5237C30.0859 17.5237 29.8207 17.5886 29.582 17.7129L28.8664 18.0857Z" stroke="white"/>
<path d="M23.6061 11.2995L23.6986 11.0103C23.7099 10.9751 23.729 10.943 23.7546 10.9163C23.7811 10.8887 23.8138 10.8678 23.85 10.8552L24.2223 10.7259C24.2933 10.7013 24.368 10.6887 24.4432 10.6887C24.5515 10.6887 24.6582 10.7148 24.7542 10.7648L24.7898 10.7834C24.8706 10.8254 24.944 10.8804 25.0071 10.9461L25.3152 11.2671C25.4705 11.429 25.6097 11.6056 25.7306 11.7946L25.8121 11.922C25.9185 12.0882 26.0028 12.2675 26.0629 12.4555C26.1347 12.6799 26.1713 12.914 26.1713 13.1496V13.9033C26.1713 14.0451 26.1394 14.1851 26.0781 14.3129L26.0607 14.3492C26.0288 14.4156 25.9865 14.4766 25.9355 14.5297C25.8044 14.6663 25.6234 14.7434 25.4341 14.7434H25.422C25.3412 14.7434 25.261 14.7299 25.1847 14.7034L25.0795 14.6669C24.873 14.5952 24.6865 14.4756 24.5351 14.3179L24.5041 14.2856C24.4331 14.2116 24.3695 14.1309 24.3143 14.0446L24.2155 13.8903C24.055 13.6395 23.9278 13.3689 23.8371 13.0853L23.751 12.8164L23.624 12.4193C23.5632 12.2293 23.5322 12.031 23.5322 11.8315V11.7728C23.5322 11.6122 23.5571 11.4525 23.6061 11.2995Z" stroke="white"/>
<path d="M34.4735 13.7264L34.4735 13.7141L34.473 13.7018L34.439 12.9679L34.4594 12.52C34.4661 12.3714 34.4939 12.2245 34.5416 12.0842C34.5794 11.9735 34.6293 11.8677 34.6904 11.769L34.8651 11.487L34.9415 11.3902C35.0867 11.2064 35.2756 11.0654 35.4894 10.9812C35.5662 10.951 35.6456 10.9283 35.7265 10.9136L35.8752 10.8866C35.9579 10.8715 36.0423 10.8703 36.1254 10.8828L36.2067 10.8951C36.3229 10.9126 36.4305 10.9688 36.5135 11.0552C36.5135 11.0552 36.5136 11.0553 36.5136 11.0553L36.5247 11.0669C36.651 11.1985 36.7618 11.3452 36.8548 11.5041L36.9113 11.6006C36.9423 11.6536 36.9688 11.7094 36.9905 11.7673C37.053 11.9343 37.074 12.1151 37.0513 12.293L36.9657 12.9663C36.9384 13.1803 36.8752 13.3878 36.779 13.5791C36.6907 13.7546 36.5758 13.9141 36.4388 14.0515L35.8151 14.6769C35.7642 14.7279 35.7027 14.7658 35.6354 14.7877C35.5403 14.8187 35.4381 14.8162 35.3447 14.7806L35.16 14.7104C34.932 14.6236 34.7381 14.4528 34.6165 14.2315L34.1914 14.4854L34.6017 14.2063C34.5181 14.0727 34.4735 13.9165 34.4735 13.7568L34.4735 13.7264Z" stroke="white"/>
<path d="M28.4944 7.75492L28.5914 7.8559C28.8119 8.08561 28.9944 8.34892 29.1322 8.63597L29.1561 8.68574C29.2676 8.9182 29.3256 9.17274 29.3256 9.43059V10.7195C29.3256 10.7944 29.3087 10.8683 29.2763 10.9358C29.2295 11.0333 29.1524 11.113 29.0565 11.1629L28.8668 11.2618L28.5967 11.4025C28.5267 11.4389 28.4489 11.458 28.3699 11.458C28.291 11.458 28.2132 11.4389 28.1432 11.4025L28.068 11.3633C27.9872 11.3212 27.9138 11.2662 27.8507 11.2005L27.7602 11.1063L27.6633 11.0053C27.4428 10.7756 27.2603 10.5122 27.1225 10.2252L26.8948 9.75083L26.8281 9.54239C26.7343 9.24911 26.6865 8.94304 26.6865 8.63511V8.24329C26.6865 8.10152 26.7184 7.96157 26.7797 7.83376C26.8231 7.74328 26.8807 7.66028 26.9502 7.58787L27.1229 7.40792C27.186 7.34221 27.2594 7.28723 27.3401 7.24515L27.4154 7.20597C27.4854 7.1695 27.5632 7.15045 27.6421 7.15045C27.7211 7.15045 27.7989 7.1695 27.8689 7.20597L27.9441 7.24515C28.0249 7.28723 28.0983 7.34221 28.1614 7.40792L28.4944 7.75492Z" stroke="white"/>
<path d="M32.3468 7.42551L32.4137 7.38232C32.6307 7.28678 32.8732 7.26351 33.1031 7.31666L33.3962 7.38442C33.4768 7.40303 33.5521 7.44099 33.6162 7.49524C33.6804 7.54949 33.7315 7.61852 33.7655 7.69679L33.7985 7.77265C33.8369 7.86095 33.8613 7.955 33.8709 8.05117L33.8836 8.17893L33.8983 8.32643C33.9301 8.6453 33.9124 8.96699 33.8459 9.27918L33.7358 9.7958L33.6613 10.0018C33.5579 10.2878 33.4111 10.5543 33.2263 10.7914L32.992 11.092C32.9066 11.2016 32.7978 11.289 32.6741 11.3474C32.5881 11.3879 32.4962 11.4138 32.402 11.424L32.1591 11.4502C32.0668 11.4602 31.9734 11.4546 31.8826 11.4336L31.8046 11.4156C31.7241 11.397 31.6487 11.359 31.5846 11.3048C31.5204 11.2505 31.4693 11.1815 31.4353 11.1032L31.3252 10.8498L31.1215 10.1401C31.0693 9.95812 31.0427 9.76939 31.0427 9.57988C31.0427 9.37093 31.075 9.1636 31.1383 8.96582L31.1664 8.87791C31.2175 8.71822 31.2855 8.56503 31.3691 8.42115C31.4451 8.29018 31.5338 8.16761 31.6336 8.0553L31.6993 7.98134C31.8901 7.76667 32.1078 7.57974 32.3468 7.42551Z" stroke="white"/>
</svg>
