<svg width="81" height="32" viewBox="0 0 81 32" fill="none" xmlns="http://www.w3.org/2000/svg">
<path d="M32 0H0V32H32V0Z" fill="white" fill-opacity="0.01"/>
<path d="M15.9997 13.3333C18.577 13.3333 20.6663 11.244 20.6663 8.66667C20.6663 6.08934 18.577 4 15.9997 4C13.4223 4 11.333 6.08934 11.333 8.66667C11.333 11.244 13.4223 13.3333 15.9997 13.3333Z" stroke="white" stroke-width="2" stroke-linecap="round" stroke-linejoin="round"/>
<path d="M4 24.5333V25.3333H28V24.5333C28 21.5464 28 20.0529 27.4187 18.9121C26.9074 17.9085 26.0915 17.0926 25.0879 16.5813C23.9471 16 22.4536 16 19.4667 16H12.5333C9.5464 16 8.05293 16 6.91207 16.5813C5.90852 17.0926 5.09262 17.9085 4.5813 18.9121C4 20.0529 4 21.5464 4 24.5333Z" stroke="white" stroke-width="2" stroke-linecap="round" stroke-linejoin="round"/>
<path d="M44.896 20.698H43.168V25H41.314V12.868H44.788C46.18 12.868 47.284 13.24 48.1 13.984C48.916 14.716 49.324 15.658 49.324 16.81C49.324 17.962 48.91 18.898 48.082 19.618C47.266 20.338 46.204 20.698 44.896 20.698ZM44.716 14.398H43.168V19.168H44.752C45.628 19.168 46.294 18.952 46.75 18.52C47.218 18.088 47.452 17.518 47.452 16.81C47.452 16.066 47.218 15.478 46.75 15.046C46.282 14.614 45.604 14.398 44.716 14.398ZM57.9425 24.514C57.2705 24.898 56.3825 25.09 55.2785 25.09C53.8625 25.09 52.7345 24.664 51.8945 23.812C51.0545 22.96 50.6345 21.844 50.6345 20.464C50.6345 19 51.0185 17.854 51.7865 17.026C52.5545 16.186 53.5325 15.766 54.7205 15.766C55.8845 15.766 56.8085 16.132 57.4925 16.864C58.1765 17.584 58.5185 18.628 58.5185 19.996C58.5185 20.368 58.4825 20.758 58.4105 21.166H52.4165C52.5365 21.958 52.8725 22.564 53.4245 22.984C53.9765 23.404 54.6725 23.614 55.5125 23.614C56.4845 23.614 57.2945 23.386 57.9425 22.93V24.514ZM54.7565 17.224C54.1565 17.224 53.6405 17.446 53.2085 17.89C52.7765 18.322 52.5065 18.952 52.3985 19.78H56.8085V19.456C56.7845 18.772 56.5985 18.232 56.2505 17.836C55.9025 17.428 55.4045 17.224 54.7565 17.224ZM62.3595 25H60.5955V15.874H62.3595V17.476C62.8035 16.348 63.6015 15.784 64.7535 15.784C64.9215 15.784 65.1075 15.802 65.3115 15.838V17.566C65.0595 17.458 64.7775 17.404 64.4655 17.404C63.8535 17.404 63.3495 17.674 62.9535 18.214C62.5575 18.754 62.3595 19.396 62.3595 20.14V25ZM71.1411 17.242H69.2151V25H67.4511V17.242H65.9931V15.874H67.4511V15.172C67.4511 14.224 67.7031 13.48 68.2071 12.94C68.7231 12.388 69.4431 12.112 70.3671 12.112C70.7031 12.112 71.0451 12.16 71.3931 12.256V13.804C71.1171 13.684 70.8291 13.624 70.5291 13.624C69.6531 13.624 69.2151 14.146 69.2151 15.19V15.874H71.1411V17.242ZM74.5608 25H72.7788V15.874H74.5608V25ZM74.7768 13.084C74.7768 13.384 74.6688 13.642 74.4528 13.858C74.2368 14.074 73.9728 14.182 73.6608 14.182C73.3488 14.182 73.0848 14.08 72.8688 13.876C72.6648 13.66 72.5628 13.396 72.5628 13.084C72.5628 12.772 72.6648 12.508 72.8688 12.292C73.0848 12.076 73.3488 11.968 73.6608 11.968C73.9728 11.968 74.2368 12.076 74.4528 12.292C74.6688 12.508 74.7768 12.772 74.7768 13.084ZM78.973 25H77.191V12.274H78.973V25Z" fill="white"/>
</svg>
