<svg width="48" height="49" viewBox="0 0 48 49" fill="none" xmlns="http://www.w3.org/2000/svg">
<path d="M39 6.78467H9C7.34315 6.78467 6 8.12782 6 9.78467V39.7847C6 41.4416 7.34315 42.7847 9 42.7847H39C40.6569 42.7847 42 41.4416 42 39.7847V9.78467C42 8.12782 40.6569 6.78467 39 6.78467Z" stroke="white" stroke-width="2.5" stroke-linecap="round" stroke-linejoin="round"/>
<path d="M17.998 23.7849C20.7594 23.7849 22.998 21.5463 22.998 18.7849C22.998 16.0235 20.7594 13.7849 17.998 13.7849C15.2366 13.7849 12.998 16.0235 12.998 18.7849C12.998 21.5463 15.2366 23.7849 17.998 23.7849Z" stroke="white" stroke-width="2" stroke-linecap="round" stroke-linejoin="round"/>
<path d="M27.7881 27.0038C28.6044 25.9113 30.2508 25.9382 31.0309 27.0569L39.8057 39.6405C40.7302 40.9664 39.7815 42.7845 38.1651 42.7845H15.998L27.7881 27.0038Z" stroke="white" stroke-width="2" stroke-linecap="round" stroke-linejoin="round"/>
</svg>
