<svg width="35" height="35" viewBox="0 0 35 35" fill="none" xmlns="http://www.w3.org/2000/svg">
<path d="M7.29167 10.2083C8.90247 10.2083 10.2083 8.90247 10.2083 7.29167C10.2083 5.68084 8.90247 4.375 7.29167 4.375C5.68084 4.375 4.375 5.68084 4.375 7.29167C4.375 8.90247 5.68084 10.2083 7.29167 10.2083Z" fill="white"/>
<path d="M17.4997 10.2083C19.1105 10.2083 20.4163 8.90247 20.4163 7.29167C20.4163 5.68084 19.1105 4.375 17.4997 4.375C15.8889 4.375 14.583 5.68084 14.583 7.29167C14.583 8.90247 15.8889 10.2083 17.4997 10.2083Z" fill="white"/>
<path d="M27.7087 10.2083C29.3195 10.2083 30.6253 8.90247 30.6253 7.29167C30.6253 5.68084 29.3195 4.375 27.7087 4.375C26.0979 4.375 24.792 5.68084 24.792 7.29167C24.792 8.90247 26.0979 10.2083 27.7087 10.2083Z" fill="white"/>
<path d="M7.29167 20.4167C8.90247 20.4167 10.2083 19.1108 10.2083 17.5C10.2083 15.8892 8.90247 14.5833 7.29167 14.5833C5.68084 14.5833 4.375 15.8892 4.375 17.5C4.375 19.1108 5.68084 20.4167 7.29167 20.4167Z" fill="white"/>
<path d="M17.4997 20.4167C19.1105 20.4167 20.4163 19.1108 20.4163 17.5C20.4163 15.8892 19.1105 14.5833 17.4997 14.5833C15.8889 14.5833 14.583 15.8892 14.583 17.5C14.583 19.1108 15.8889 20.4167 17.4997 20.4167Z" fill="white"/>
<path d="M27.7087 20.4167C29.3195 20.4167 30.6253 19.1108 30.6253 17.5C30.6253 15.8892 29.3195 14.5833 27.7087 14.5833C26.0979 14.5833 24.792 15.8892 24.792 17.5C24.792 19.1108 26.0979 20.4167 27.7087 20.4167Z" fill="white"/>
<path d="M7.29167 30.625C8.90247 30.625 10.2083 29.3191 10.2083 27.7083C10.2083 26.0975 8.90247 24.7917 7.29167 24.7917C5.68084 24.7917 4.375 26.0975 4.375 27.7083C4.375 29.3191 5.68084 30.625 7.29167 30.625Z" fill="white"/>
<path d="M17.4997 30.625C19.1105 30.625 20.4163 29.3191 20.4163 27.7083C20.4163 26.0975 19.1105 24.7917 17.4997 24.7917C15.8889 24.7917 14.583 26.0975 14.583 27.7083C14.583 29.3191 15.8889 30.625 17.4997 30.625Z" fill="white"/>
<path d="M27.7087 30.625C29.3195 30.625 30.6253 29.3191 30.6253 27.7083C30.6253 26.0975 29.3195 24.7917 27.7087 24.7917C26.0979 24.7917 24.792 26.0975 24.792 27.7083C24.792 29.3191 26.0979 30.625 27.7087 30.625Z" fill="white"/>
</svg>
