<svg width="35" height="35" viewBox="0 0 35 35" fill="none" xmlns="http://www.w3.org/2000/svg">
<g clip-path="url(#clip0_2400_21084)">
<path d="M-0.000556946 0H34.2852V35H-0.000556946V0Z" fill="white" fill-opacity="0.01"/>
<path d="M17.142 32.0837C13.1972 32.0837 9.62573 30.4514 7.04052 27.8123C4.4553 25.1732 2.85631 21.5274 2.85631 17.5003C2.85631 13.4733 4.4553 9.82745 7.04052 7.18835C9.62573 4.54929 13.1972 2.91699 17.142 2.91699C21.0869 2.91699 24.6583 4.54929 27.2435 7.18835C29.8287 9.82745 31.4277 13.4733 31.4277 17.5003C31.4277 21.5274 29.8287 25.1732 27.2435 27.8123C24.6583 30.4514 21.0869 32.0837 17.142 32.0837Z" stroke="white" stroke-width="2" stroke-linejoin="round"/>
<path fill-rule="evenodd" clip-rule="evenodd" d="M17.142 26.9788C16.1558 26.9788 15.3563 26.1627 15.3563 25.1559C15.3563 24.1492 16.1558 23.333 17.142 23.333C18.1282 23.333 18.9277 24.1492 18.9277 25.1559C18.9277 26.1627 18.1282 26.9788 17.142 26.9788Z" fill="white"/>
<path d="M17.1426 8.75V20.4167" stroke="white" stroke-width="2" stroke-linecap="round" stroke-linejoin="round"/>
</g>
<defs>
<clipPath id="clip0_2400_21084">
<rect width="34.2857" height="35" fill="white" transform="matrix(-1 0 0 1 34.2852 0)"/>
</clipPath>
</defs>
</svg>
