<svg width="38" height="38" viewBox="0 0 38 38" fill="none" xmlns="http://www.w3.org/2000/svg">
<path d="M11.7038 18.8475C8.66377 17.3275 6.61177 14.2875 6.61177 10.6395C6.61177 5.62353 10.7158 1.51953 15.7318 1.51953C20.7478 1.51953 24.8518 5.62353 24.8518 10.6395C24.8518 15.5795 20.9758 19.6075 16.0358 19.7595H15.9598C8.43577 19.7595 2.27977 25.9155 2.27977 33.4395C2.27977 33.8955 1.97577 34.1995 1.51977 34.1995C1.06377 34.1995 0.759766 33.8955 0.759766 33.4395C0.759766 26.5235 5.39577 20.6715 11.7038 18.8475ZM15.7318 18.2395C19.9118 18.2395 23.3318 14.8195 23.3318 10.6395C23.3318 6.45953 19.9118 3.03953 15.7318 3.03953C11.5518 3.03953 8.13177 6.45953 8.13177 10.6395C8.13177 14.8195 11.5518 18.2395 15.7318 18.2395ZM36.5558 23.2555L36.7078 23.6355L34.8838 25.8395C34.5798 26.2195 34.5798 26.8275 34.8838 27.2075L36.7078 29.3355L36.5558 29.7155C36.1758 30.7795 35.6438 31.8435 34.8838 32.6795L34.5798 32.9835L31.7678 32.5275C31.3118 32.4515 30.7798 32.7555 30.6278 33.2115L29.6398 35.9475L29.2598 36.0235C27.8158 36.3275 26.3718 36.3275 24.9278 36.0235L24.4718 35.9475L23.5598 33.2875C23.4078 32.8315 22.8758 32.5275 22.4198 32.6035L19.5318 33.0595L19.2278 32.7555C18.8478 32.3755 18.5438 31.9195 18.3158 31.4635C18.0118 30.9315 17.7078 30.3235 17.5558 29.7155L17.4038 29.3355L19.3038 27.2075C19.6078 26.8275 19.6078 26.2195 19.3038 25.9155L17.4798 23.7115L17.6318 23.3315C18.0118 22.1915 18.6198 21.2035 19.3798 20.2915L19.6838 19.9875L22.4198 20.4435C22.8758 20.5195 23.4078 20.2155 23.6358 19.7595L24.6238 17.0995L25.0038 17.0235C26.3718 16.7195 27.8158 16.7195 29.2598 17.0235L29.7158 17.0995L30.6278 19.6835C30.7798 20.1395 31.3118 20.5195 31.8438 20.4435L34.6558 20.0635L34.9598 20.3675C35.3398 20.8235 35.6438 21.2035 35.8718 21.7355C36.0998 22.1155 36.3278 22.7235 36.5558 23.2555ZM34.4278 22.3435C34.2758 22.0395 34.1238 21.8115 33.8958 21.5075L31.9198 21.7355C30.7038 21.8875 29.4878 21.1275 29.1078 19.9875L28.4998 18.2395C27.5878 18.0875 26.6758 18.0875 25.7638 18.2395L25.0798 20.0635C24.6998 21.2035 23.4078 21.9635 22.1918 21.7355L20.2918 21.4315C19.8358 21.9635 19.5318 22.6475 19.2278 23.2555L20.5198 24.7755C21.2798 25.6875 21.2798 27.1315 20.5198 28.0435L19.2278 29.5635C19.3798 29.9435 19.5318 30.2475 19.7598 30.6275C19.9118 30.9315 20.0638 31.1595 20.2918 31.3875L22.3438 31.0835C23.5598 30.9315 24.7758 31.6915 25.1558 32.8315L25.7638 34.6555C26.6758 34.8075 27.6638 34.8075 28.5758 34.6555L29.2598 32.7555C29.6398 31.6155 30.9318 30.8555 32.0718 31.0835L33.9718 31.3875C34.3518 30.8555 34.7318 30.2475 34.9598 29.5635L33.7438 28.1195C32.9838 27.2075 32.9078 25.7635 33.6678 24.8515L34.9598 23.3315C34.8078 23.0275 34.6558 22.7235 34.4278 22.3435ZM27.1318 29.9435C25.2318 29.9435 23.7118 28.4235 23.7118 26.5235C23.7118 24.6235 25.2318 23.1035 27.1318 23.1035C29.0318 23.1035 30.5518 24.6235 30.5518 26.5235C30.5518 28.4235 28.9558 29.9435 27.1318 29.9435ZM27.1318 28.4235C28.1958 28.4235 29.0318 27.5875 29.0318 26.5235C29.0318 25.4595 28.1958 24.6235 27.1318 24.6235C26.0678 24.6235 25.2318 25.4595 25.2318 26.5235C25.2318 27.5875 26.0678 28.4235 27.1318 28.4235Z" fill="white"/>
</svg>
