<svg width="48" height="48" viewBox="0 0 48 48" fill="none" xmlns="http://www.w3.org/2000/svg">
<path d="M6 41.7V6.28125C6 6.12656 5.87344 6 5.71875 6H3.28125C3.12656 6 3 6.12656 3 6.28125V44.4187C3 44.7281 3.25313 44.9812 3.5625 44.9812H44.7281C44.8828 44.9812 45.0094 44.8547 45.0094 44.7V42.2625C45.0094 42.1078 44.8828 41.9812 44.7281 41.9812H6.28125C6.12656 41.9812 6 41.8547 6 41.7Z" fill="white"/>
<path d="M17.4422 27.0188H9.5625C9.25313 27.0188 9 27.2719 9 27.5813V38.4422C9 38.7516 9.25313 39.0047 9.5625 39.0047H17.4375C17.7469 39.0047 18 38.7516 18 38.4422V27.5813C18.0047 27.2719 17.7516 27.0188 17.4422 27.0188ZM14.7234 36.0047H12.2859C12.1313 36.0047 12.0047 35.8781 12.0047 35.7234V30.3C12.0047 30.1453 12.1313 30.0187 12.2859 30.0187H14.7234C14.8781 30.0187 15.0047 30.1453 15.0047 30.3V35.7234C15.0047 35.8781 14.8781 36.0047 14.7234 36.0047ZM29.4422 12H21.5672C21.2578 12 21.0047 12.2531 21.0047 12.5625V38.4422C21.0047 38.7516 21.2578 39.0047 21.5672 39.0047H29.4422C29.7516 39.0047 30.0047 38.7516 30.0047 38.4422V12.5625C30.0047 12.2484 29.7562 12 29.4422 12ZM26.7234 36.0047H24.2859C24.1312 36.0047 24.0047 35.8781 24.0047 35.7234V15.2812C24.0047 15.1266 24.1312 15 24.2859 15H26.7234C26.8781 15 27.0047 15.1266 27.0047 15.2812V35.7234C27.0047 35.8781 26.8781 36.0047 26.7234 36.0047ZM41.4469 21.0094H33.5719C33.2625 21.0094 33.0094 21.2625 33.0094 21.5719V38.4422C33.0094 38.7516 33.2625 39.0047 33.5719 39.0047H41.4469C41.7563 39.0047 42.0094 38.7516 42.0094 38.4422V21.5719C42.0094 21.2625 41.7563 21.0094 41.4469 21.0094ZM38.7281 36.0047H36.2906C36.1359 36.0047 36.0094 35.8781 36.0094 35.7234V24.2906C36.0094 24.1359 36.1359 24.0094 36.2906 24.0094H38.7281C38.8828 24.0094 39.0094 24.1359 39.0094 24.2906V35.7234C39.0094 35.8781 38.8828 36.0047 38.7281 36.0047Z" fill="white"/>
</svg>
