<svg width="37" height="38" viewBox="0 0 37 38" fill="none" xmlns="http://www.w3.org/2000/svg">
<circle cx="18.3555" cy="18.8555" r="17.8555" stroke="white"/>
<path d="M18.7355 22.5654H16.0715L15.9995 18.7974C18.7035 18.7974 20.0555 17.9494 20.0555 16.2534C20.0555 15.5814 19.8475 15.0454 19.4315 14.6454C19.0155 14.2454 18.3995 14.0454 17.5835 14.0454C16.4635 14.0454 15.3515 14.4054 14.2475 15.1254V12.3654C15.2555 11.8374 16.4955 11.5734 17.9675 11.5734C19.4715 11.5734 20.6875 11.9654 21.6155 12.7494C22.5435 13.5334 23.0075 14.6054 23.0075 15.9654C23.0075 16.6854 22.8635 17.3334 22.5755 17.9094C22.2875 18.4854 21.9195 18.9414 21.4715 19.2774C21.0395 19.6134 20.5915 19.8694 20.1275 20.0454C19.6635 20.2214 19.2155 20.3254 18.7835 20.3574L18.7355 22.5654ZM19.2635 26.2374C19.2635 26.7814 19.0795 27.2374 18.7115 27.6054C18.3435 27.9574 17.8955 28.1334 17.3675 28.1334C16.8235 28.1334 16.3675 27.9574 15.9995 27.6054C15.6475 27.2374 15.4715 26.7814 15.4715 26.2374C15.4715 25.7094 15.6475 25.2614 15.9995 24.8934C16.3675 24.5254 16.8235 24.3414 17.3675 24.3414C17.8955 24.3414 18.3435 24.5254 18.7115 24.8934C19.0795 25.2614 19.2635 25.7094 19.2635 26.2374Z" fill="white"/>
</svg>
