<svg width="27" height="27" viewBox="0 0 27 27" fill="none" xmlns="http://www.w3.org/2000/svg">
<path d="M8.64019 13.5001C10.5578 13.5001 12.1124 11.9455 12.1124 10.0279C12.1124 8.11025 10.5578 6.55566 8.64019 6.55566C6.72255 6.55566 5.16797 8.11025 5.16797 10.0279C5.16797 11.9455 6.72255 13.5001 8.64019 13.5001Z" stroke="#7F2AB5" stroke-width="2" stroke-linecap="round" stroke-linejoin="round"/>
<path d="M23.9167 1H3.08333C1.93274 1 1 1.93274 1 3.08333V23.9167C1 25.0673 1.93274 26 3.08333 26H23.9167C25.0673 26 26 25.0673 26 23.9167V3.08333C26 1.93274 25.0673 1 23.9167 1Z" stroke="#7F2AB5" stroke-width="2" stroke-linecap="round" stroke-linejoin="round"/>
<path d="M25.9983 21.8331L18.3594 14.8887L5.85938 25.9998" stroke="#7F2AB5" stroke-width="2" stroke-linecap="round" stroke-linejoin="round"/>
</svg>
