<svg width="43" height="44" viewBox="0 0 43 44" fill="none" xmlns="http://www.w3.org/2000/svg">
<path d="M3.52 24.2L1.98 22L0.570511 19.3824C0.483842 19.2214 0.417572 19.0503 0.373234 18.8729L0.0656864 17.6427C0.0220601 17.4682 0 17.289 0 17.1091V15.8021C0 15.6809 0.0100119 15.5599 0.0299334 15.4404L0.173988 14.576C0.20454 14.3927 0.258194 14.214 0.333669 14.0442L1.1 12.32L1.62066 11.4522C1.7132 11.298 1.82432 11.1557 1.95151 11.0285L2.64 10.34L5.06 7.91998L5.86847 7.11151C6.06019 6.91979 6.29391 6.77534 6.55113 6.6896L6.64995 6.65666C6.76258 6.61912 6.88053 6.59998 6.99925 6.59998C7.17072 6.59998 7.33985 6.6399 7.49322 6.71659L7.52075 6.73035C7.63947 6.78971 7.74785 6.86783 7.84171 6.96168L15.0383 14.1583C15.1321 14.2521 15.2103 14.3605 15.2696 14.4792C15.3554 14.6507 15.4 14.8398 15.4 15.0315V15.1393C15.4 15.5879 15.2218 16.0182 14.9045 16.3354L13.2218 18.0182C12.5695 18.6705 12.4683 19.6925 12.98 20.46L13.64 21.56L14.96 23.32L16.28 24.86L17.269 26.0468C17.3429 26.1355 17.4236 26.2181 17.5104 26.2941L19.14 27.72L20.9 29.26L22.44 30.36L23.3711 30.9525C24.2411 31.5061 25.3788 31.3812 26.1079 30.6521L26.18 30.58L27.06 29.7L27.72 29.04L27.956 28.8039C28.0902 28.6698 28.2537 28.5687 28.4336 28.5088C28.6844 28.4252 28.9556 28.4252 29.2064 28.5088C29.3863 28.5687 29.5498 28.6698 29.6839 28.8039L37.18 36.3C37.3209 36.4408 37.4 36.6319 37.4 36.8311V36.8592C37.4 36.9261 37.3918 36.9928 37.3755 37.0578L37.3278 37.2488C37.2311 37.6356 37.0311 37.9889 36.7491 38.2709L34.1 40.92L33.154 41.8659C33.0516 41.9684 32.9393 42.0604 32.8187 42.1408L31.8481 42.7879C31.7363 42.8625 31.6179 42.9266 31.4943 42.9795L30.302 43.4905C30.1942 43.5368 30.0828 43.5743 29.969 43.6027L28.6427 43.9343C28.4682 43.9779 28.289 44 28.1092 44H26.7081C26.5037 44 26.3003 43.9715 26.1037 43.9153L25.1256 43.6358C24.9492 43.5855 24.7799 43.5132 24.6214 43.4208L22.22 42.02L18.26 39.38L14.3 36.3L11 33.22L7.92 29.92L6.16 27.72L4.84 25.96L3.52 24.2Z" fill="#50077E"/>
<path d="M19.5802 18.7001L21.5602 20.6801L25.5202 23.1001L22.4402 24.2001L21.239 24.7149C21.0154 24.8107 20.7748 24.8601 20.5316 24.8601H20.5236C20.3359 24.8601 20.1494 24.8298 19.9713 24.7705L19.8753 24.7385C19.6812 24.6738 19.5048 24.5648 19.3602 24.4201L19.2915 24.3514C19.192 24.2519 19.117 24.1305 19.0725 23.997C18.9727 23.6976 18.9527 23.3773 19.0146 23.0678L19.0302 22.9901L19.1402 22.4401L19.5802 18.7001Z" fill="#50077E"/>
<path d="M43 11.8899C43 17.9701 38.0623 24 30.1189 24C22.1756 24 16.5939 17.8349 17.0232 11.8899C17.0232 4.18349 24.1906 0 30.1189 0C37.4183 0 43 5.80971 43 11.8899Z" fill="#50077E"/>
<path d="M26.5899 13.7067C26.7781 13.1463 27.0949 12.6367 27.5144 12.2202V12.2202C27.7343 12.002 27.98 11.8115 28.2462 11.653L28.7147 11.3739C28.9415 11.2388 29.187 11.1379 29.4432 11.0743V11.0743C29.8269 10.9791 30.2269 10.9696 30.6147 11.0466L30.7095 11.0654C31.0587 11.1347 31.3935 11.2633 31.6994 11.4454L32.01 11.6304C32.3012 11.8039 32.572 12.0142 32.8126 12.253V12.253C33.2097 12.6472 33.5254 13.1212 33.7346 13.6403V13.6403C33.846 13.9166 33.927 14.2042 33.9763 14.498L34.027 14.7995C34.1046 15.2619 34.0969 15.7345 34.0043 16.1941L33.9503 16.4622C33.9183 16.6209 33.8652 16.7746 33.7924 16.9192L33.7287 17.0456C33.6831 17.1361 33.6232 17.2187 33.5512 17.2902V17.2902C33.3178 17.5218 32.9805 17.6149 32.6613 17.5357L32.3637 17.4619C32.2591 17.4359 32.1575 17.3986 32.0609 17.3507L31.971 17.306C31.8059 17.2241 31.655 17.1161 31.5242 16.9863V16.9863C31.3354 16.7989 31.1057 16.6578 30.8532 16.5743L30.6977 16.5228C30.5736 16.4818 30.4438 16.4608 30.313 16.4608V16.4608C30.1241 16.4608 29.9378 16.5045 29.7686 16.5885L29.0568 16.9418L28.0678 17.5309C27.9223 17.6175 27.756 17.6633 27.5867 17.6633V17.6633C27.2919 17.6633 27.0142 17.525 26.8365 17.2899L26.6844 17.0885C26.4945 16.8373 26.3918 16.531 26.3918 16.2161V15.4989V14.9179C26.3918 14.5064 26.4589 14.0969 26.5899 13.7067V13.7067Z" fill="#FFD92E"/>
<path d="M23 10.5188C23 10.313 23.0334 10.1086 23.0989 9.91349L23.1878 9.64892C23.2236 9.54217 23.2839 9.44528 23.3638 9.36595V9.36595C23.4432 9.28713 23.5398 9.22781 23.646 9.19266L24.024 9.06761C24.1481 9.02654 24.278 9.00562 24.4087 9.00562V9.00562C24.5976 9.00562 24.7839 9.04931 24.9531 9.13329L24.9825 9.14789C25.1136 9.21294 25.2333 9.29865 25.3372 9.40174L25.6455 9.70776C25.8195 9.88053 25.9761 10.0701 26.1128 10.2737L26.2002 10.4038C26.3273 10.5931 26.4285 10.7986 26.5011 11.0148V11.0148C26.5891 11.2768 26.634 11.5514 26.634 11.8279V12.5337C26.634 12.7439 26.5847 12.9512 26.4902 13.1389L26.4787 13.1618C26.4211 13.2761 26.3454 13.3803 26.2546 13.4705V13.4705C26.0321 13.6914 25.7312 13.8153 25.4177 13.8153H25.3847C25.2494 13.8153 25.1149 13.7937 24.9864 13.7511L24.885 13.7176C24.6013 13.6237 24.3432 13.4653 24.1311 13.2547L24.1127 13.2365C24.0172 13.1416 23.9313 13.0376 23.8562 12.9258L23.7635 12.7877C23.5783 12.5121 23.431 12.2129 23.3253 11.8981L23.2423 11.651L23.1148 11.2715C23.0388 11.045 23 10.8077 23 10.5688V10.5188Z" fill="#FFD92E"/>
<path d="M34.516 9.8407C34.7153 9.60024 34.9746 9.41581 35.2681 9.30575V9.30575C35.3737 9.26616 35.4828 9.23653 35.594 9.21726L35.7426 9.1915C35.876 9.16838 36.0122 9.16642 36.1462 9.1857L36.2278 9.19744C36.4479 9.22912 36.6519 9.33058 36.8092 9.48671V9.48671L36.8204 9.49779C36.9738 9.65018 37.1085 9.82016 37.2215 10.0041L37.2779 10.0959C37.3238 10.1706 37.363 10.2492 37.395 10.3307V10.3307C37.4875 10.5658 37.5184 10.8203 37.485 11.0705L37.3994 11.7112C37.3646 11.9716 37.284 12.2239 37.1612 12.4566V12.4566C37.0486 12.6698 36.9022 12.8636 36.7275 13.0305L36.1043 13.6259C35.9988 13.7266 35.8712 13.8016 35.7315 13.8449V13.8449C35.5339 13.9062 35.3214 13.9012 35.127 13.8307L34.9435 13.7642C34.6064 13.642 34.3225 13.4032 34.1442 13.094V13.094V13.094C34.009 12.8881 33.937 12.6476 33.937 12.4018L33.937 12.3725L33.9019 11.6511L33.9234 11.2019C33.9324 11.0128 33.9694 10.8259 34.0332 10.6475V10.6475C34.0835 10.5067 34.1501 10.3723 34.2317 10.2468L34.4215 9.95469L34.516 9.8407Z" fill="#FFD92E"/>
<path d="M26.1497 7.16117C26.1497 6.95096 26.1989 6.74367 26.2935 6.55593V6.55593C26.3587 6.42649 26.4444 6.30843 26.5472 6.20633L26.7197 6.03516C26.8235 5.93207 26.9433 5.84636 27.0743 5.78131L27.144 5.74674C27.2867 5.6759 27.4439 5.63904 27.6033 5.63904V5.63904C27.7626 5.63904 27.9198 5.6759 28.0625 5.74674L28.1322 5.78131C28.2632 5.84636 28.383 5.93207 28.4868 6.03516L28.8146 6.36049L28.9169 6.46207C29.1701 6.71335 29.3809 7.00388 29.5414 7.32244V7.32244L29.5673 7.37385C29.7096 7.65629 29.7837 7.96813 29.7837 8.28438V8.28438V9.50315C29.7837 9.65052 29.7491 9.79585 29.6828 9.92747V9.92747C29.591 10.1097 29.4426 10.2573 29.2598 10.348L29.0569 10.4487L28.7893 10.5815C28.6466 10.6524 28.4894 10.6892 28.3301 10.6892V10.6892C28.1707 10.6892 28.0135 10.6524 27.8708 10.5815L27.8011 10.547C27.6701 10.4819 27.5503 10.3962 27.4465 10.2931L27.361 10.2083L27.2587 10.1067C27.0055 9.8554 26.7946 9.56487 26.6342 9.24632V9.24632L26.4961 8.9721C26.4267 8.83444 26.3673 8.69201 26.3182 8.54589L26.3141 8.53344C26.2052 8.20923 26.1497 7.86948 26.1497 7.52747V7.52747V7.16117Z" fill="#FFD92E"/>
<path d="M33.3284 10.1714C33.1952 10.3342 33.0257 10.464 32.8333 10.5504V10.5504C32.7002 10.6103 32.5583 10.6484 32.4131 10.6633L32.1705 10.6883C32.025 10.7033 31.878 10.6949 31.7352 10.6635L31.6585 10.6466C31.5029 10.6123 31.3575 10.5426 31.2339 10.4429V10.4429C31.1102 10.3432 31.0116 10.2163 30.9458 10.0721L30.8223 9.80142L30.6089 9.09273C30.5435 8.87562 30.5103 8.65017 30.5103 8.42346V8.42346C30.5103 8.17205 30.5511 7.92223 30.6313 7.68362L30.6588 7.60149C30.7211 7.41602 30.804 7.23799 30.906 7.07071V7.07071C30.999 6.91826 31.1072 6.77556 31.2292 6.64481L31.2948 6.57448C31.5147 6.33869 31.7657 6.1334 32.0408 5.96417L32.1373 5.90482V5.90482C32.4576 5.76085 32.8167 5.72396 33.1597 5.79951V5.79951L33.4519 5.86388C33.6075 5.89816 33.7529 5.96789 33.8766 6.06758V6.06758C34.0003 6.16728 34.0989 6.2942 34.1646 6.43832L34.197 6.50938C34.2574 6.64162 34.2958 6.78269 34.3109 6.92715L34.3235 7.04733L34.3383 7.18926C34.3753 7.54336 34.3546 7.90116 34.2768 8.24886V8.24886L34.21 8.54781C34.1764 8.6983 34.132 8.84625 34.0773 8.99052L34.0728 9.0023C33.9513 9.32233 33.7787 9.62087 33.5615 9.8864V9.8864L33.3284 10.1714Z" fill="#FFD92E"/>
</svg>
