<svg width="85" height="79" viewBox="0 0 85 79" fill="none" xmlns="http://www.w3.org/2000/svg">
<path d="M57.3136 2.07426C57.3761 1.82433 57.4811 1.58699 57.624 1.37263C58.0408 0.747346 58.7426 0.371765 59.4941 0.371765H59.7818C59.9653 0.371765 60.1482 0.389882 60.3281 0.425852L61.7484 0.709924C62.0857 0.777373 62.3954 0.943139 62.6386 1.18633C62.9653 1.51303 63.1488 1.95613 63.1488 2.41815V4.78777V6.91647C63.1488 7.55572 63.2272 8.19257 63.3823 8.81274C63.5206 9.36617 63.7191 9.90279 63.9743 10.413L64.4736 11.4118L65.3122 13.0889C65.6351 13.7348 66.0361 14.3386 66.506 14.8869L67.9635 16.5873C68.286 16.9635 68.5762 17.3662 68.8311 17.791L69.7728 19.3606L70.3835 20.7855C70.8547 21.8849 71.0976 23.0685 71.0976 24.2646V28.6342V29.5524C71.0976 30.1055 70.9339 30.6462 70.6271 31.1064L70.317 31.5716C70.2498 31.6724 70.1575 31.7539 70.0491 31.8081C69.6702 31.9975 69.2114 31.8075 69.0774 31.4056L68.8896 30.8422L67.7953 27.9238C67.6419 27.5148 67.4583 27.1177 67.2462 26.7358L66.0866 24.6486C65.6036 23.7791 64.9771 22.9975 64.2337 22.3367L61.3824 19.8022L59.1744 17.5942L57.7585 15.8243C57.5267 15.5345 57.348 15.206 57.2306 14.8539C57.0575 14.3346 57.0229 13.779 57.1303 13.2422L57.408 11.8534L57.7512 10.1377C57.8167 9.81027 57.8496 9.47721 57.8496 9.14334C57.8496 8.59839 57.7618 8.05701 57.5895 7.54003L57.408 6.99577L57.1806 6.0862C57.0384 5.51713 56.9664 4.93276 56.9664 4.34617V4.2194C56.9664 3.71701 57.028 3.21651 57.1499 2.72912L57.3136 2.07426Z" fill="white"/>
<path d="M27.4841 2.0764C27.4201 1.82685 27.3136 1.59018 27.1694 1.37672C26.7486 0.754046 26.0445 0.382853 25.293 0.387544L25.0053 0.389341C24.8219 0.390486 24.6391 0.409744 24.4594 0.446837L23.0409 0.739769C22.7041 0.809322 22.3954 0.977018 22.1537 1.22172C21.8291 1.55046 21.6483 1.99469 21.6512 2.4567L21.666 4.82628L21.6819 7.3738C21.6841 7.73485 21.6421 8.09482 21.5567 8.44564L21.3693 9.21554C21.2931 9.5286 21.1829 9.83239 21.0406 10.1215L20.3825 11.4584L19.3144 13.6285C19.1549 13.9524 18.9563 14.2556 18.7231 14.5312L16.6846 16.9398C16.5245 17.1289 16.3806 17.3311 16.2545 17.5443L15.1331 19.4402L14.1794 21.7042C13.9473 22.2554 13.8295 22.8479 13.8332 23.446L13.8662 28.7219L13.8719 29.64C13.8754 30.1931 14.0424 30.7328 14.3521 31.191L14.6652 31.6543C14.733 31.7547 14.8258 31.8356 14.9345 31.8891C15.3146 32.0762 15.7722 31.8833 15.9036 31.4806L16.0879 30.916L17.2773 27.683C17.3528 27.478 17.4433 27.2788 17.5482 27.0872L19.213 24.046C19.4518 23.6097 19.7626 23.217 20.1322 22.8843L23.5261 19.8294L25.7202 17.6076L27.1251 15.8289C27.3551 15.5377 27.5318 15.2081 27.6469 14.8553C27.8168 14.3349 27.8479 13.7791 27.7372 13.243L27.4508 11.8559L27.0838 10.0789C27.025 9.79415 26.9945 9.50424 26.9927 9.21345L26.9916 9.04254C26.9886 8.56791 27.0622 8.0959 27.2095 7.64469L27.4204 6.9984L27.7224 5.75749C27.8078 5.40667 27.8499 5.0467 27.8476 4.68565L27.8434 4.00653C27.8411 3.64548 27.7946 3.28606 27.7048 2.93634L27.4841 2.0764Z" fill="white"/>
<path d="M12.0611 2.08111C12.3682 1.58279 12.7793 1.1567 13.2664 0.832012C13.6539 0.573661 14.0829 0.383859 14.5348 0.270898L15.1779 0.110128C15.4704 0.0369855 15.7709 0 16.0725 0H16.358C16.7428 0 17.1224 0.0895993 17.4666 0.261702C17.7049 0.380855 17.9224 0.537647 18.1108 0.726044L18.3563 0.971504C18.5888 1.20397 18.7651 1.48643 18.8718 1.79737C18.9493 2.02303 18.9888 2.25998 18.9888 2.49857V3.90461V5.0033C18.9888 5.44781 18.9553 5.89168 18.8884 6.33113L18.7096 7.50721L18.5472 8.32061L18.4122 8.72565C18.2084 9.33699 17.9384 9.92419 17.6068 10.4768L16.7808 11.8534L15.8326 13.1177C15.5819 13.452 15.3077 13.7681 15.0122 14.0637L14.9715 14.1044C14.1257 14.9501 13.4606 15.9589 13.0163 17.0694L12.8064 17.5942L11.4816 22.0102L11.04 23.7766L10.8101 25.1563C10.6697 25.9985 10.6522 26.8566 10.7581 27.7037L11.04 29.959L11.7516 32.8053C11.8658 33.2623 12.0164 33.7094 12.202 34.1423L13.248 36.583L15.456 40.5574L17.7225 44.335C17.9775 44.7599 18.2677 45.1626 18.5902 45.5388L20.7552 48.0647L23.8464 51.1559C24.2762 51.5243 24.8759 50.9706 24.543 50.5128L23.4048 48.9479L19.8946 42.9805C19.2968 41.9642 18.9085 40.8385 18.7527 39.6698L18.2364 35.7978C18.1495 35.1457 18.1357 34.486 18.1952 33.8309L18.5472 29.959L18.8322 27.6788C18.9301 26.8963 19.4125 26.2144 20.1179 25.8617C21.0259 25.4077 22.1226 25.5857 22.8405 26.3035L23.2694 26.7324C23.648 27.111 23.9256 27.5786 24.0767 28.0923L25.5282 33.0275C25.8752 34.2072 26.4647 35.3016 27.2591 36.2403L30.912 40.5574L34.8864 45.4151L39.3024 51.1559L40.9633 54.0624C41.7077 55.3651 43.6332 55.2103 44.16 53.8055L46.2322 49.3158C46.6149 48.4867 47.1238 47.722 47.7408 47.0489L51.207 43.2676C51.5134 42.9333 51.7936 42.576 52.0451 42.1987L55.2001 37.4662L57.8497 33.0502L58.5695 31.8506C58.9692 31.1843 59.2401 30.4487 59.3678 29.6823L59.4683 29.0794C59.5654 28.4968 59.8011 27.946 60.1555 27.4734L60.2998 27.281C60.7145 26.7281 61.3069 26.3347 61.9774 26.1671L62.1272 26.1296C62.5081 26.0344 62.9065 26.0344 63.2873 26.1296C64.0323 26.3159 64.6426 26.8486 64.9278 27.5616L65.1792 28.19C65.2972 28.4849 65.3768 28.7938 65.4162 29.109L65.7985 32.167V35.2582V36.207C65.7985 37.3306 65.5841 38.4438 65.1668 39.4871L64.9153 40.1158L64.3257 42.1794C64.1307 42.862 63.854 43.5186 63.5018 44.135L62.2657 46.2983L61.724 47.6524C61.4969 48.2201 61.2115 48.7627 60.8724 49.2714L59.6161 51.1559C59.3648 51.5328 59.8605 51.9569 60.194 51.6503L60.7319 51.1559L64.4737 47.1815L67.2291 43.7372C67.7448 43.0925 68.1676 42.3788 68.4851 41.6168L70.2145 37.4662L72.8641 32.167L72.9305 32.0563C73.7539 30.684 74.1889 29.1137 74.1889 27.5133C74.1889 26.7913 74.1003 26.0721 73.9252 25.3717L73.5408 23.834C73.3845 23.2088 73.1603 22.6026 72.8721 22.0263L71.0977 18.4774L68.8897 13.6198L66.6817 9.64542L65.6376 7.20925C65.451 6.77374 65.31 6.32001 65.2171 5.85539L65.0753 5.1462C64.9699 4.61945 64.9829 4.07588 65.1131 3.55474C65.2726 2.91679 65.6025 2.33419 66.0675 1.86921L66.3395 1.59718C66.5661 1.37055 66.8278 1.18193 67.1145 1.0386C67.954 0.618842 68.9421 0.618841 69.7817 1.0386L70.3162 1.30585C70.8316 1.56356 71.2881 1.92515 71.6571 2.36785L73.3057 4.34621L77.7217 10.9702L81.3388 16.195C81.5767 16.5386 81.7899 16.8986 81.9768 17.2724L83.1009 19.5206C83.6309 20.5807 83.9422 21.7366 84.0161 22.9195L84.3457 28.1926L83.9041 33.9334L83.0209 38.791L81.6961 43.6487L80.3713 47.1815L77.7217 52.0391L75.6315 55.5227C75.2599 56.142 74.8139 56.7133 74.3033 57.2239L72.4247 59.1024C72.1292 59.398 71.8131 59.6721 71.4787 59.9229L66.6817 63.5207L62.557 67.2704C62.0699 67.7132 61.5348 68.1002 60.9618 68.4241L51.6673 73.6775L46.9926 76.4823C44.4033 78.0359 41.1997 78.1589 38.4988 76.8085L37.536 76.3271L29.5872 71.4695L23.4048 67.9367L16.7808 63.0791L11.9232 58.6631L8.39041 55.1303L7.20851 53.6529C6.81993 53.1672 6.48375 52.6417 6.20557 52.0854L5.29921 50.2727L3.47259 46.2541C3.21902 45.6963 3.0242 45.1135 2.89127 44.5153L2.208 41.4407L1.3248 37.4662L0.441601 32.6086L0 27.3094V22.6615C0 22.2284 0.0427856 21.7963 0.127734 21.3716C0.33397 20.3404 0.78444 19.3737 1.44137 18.5525L2.208 17.5942L4.41601 14.0614L6.62401 11.4118L7.8059 9.93445C8.19449 9.44872 8.53067 8.9233 8.80885 8.36693L9.27361 7.43741L10.1568 5.67101L10.5984 4.78781L11.4816 3.02141L12.0611 2.08111Z" fill="white"/>
<path d="M35.248 31.5939C35.5894 30.5696 36.1672 29.6314 36.9306 28.8679C37.3328 28.4658 37.7826 28.1145 38.2703 27.8219L39.1223 27.3107C39.5346 27.0633 39.9811 26.8784 40.4475 26.7618C41.1474 26.5868 41.8775 26.5694 42.5849 26.7109L42.7577 26.7455C43.3935 26.8726 44.0027 27.1081 44.5586 27.4417L45.1234 27.7806C45.6568 28.1006 46.1499 28.4858 46.5897 28.9257C47.3165 29.6524 47.8897 30.5209 48.2714 31.4752C48.4739 31.9815 48.6213 32.5081 48.711 33.046L48.8038 33.6031C48.9452 34.4516 48.9312 35.3187 48.7625 36.1623L48.6636 36.6567C48.6055 36.9472 48.5089 37.2287 48.3764 37.4938L48.2589 37.7288C48.1765 37.8936 48.0681 38.0441 47.9377 38.1744C47.5119 38.6003 46.8938 38.7715 46.3095 38.6254L45.7717 38.491C45.5811 38.4433 45.3962 38.3749 45.2204 38.287L45.0568 38.2052C44.7554 38.0545 44.4802 37.8562 44.2419 37.6178C43.8977 37.2736 43.4781 37.0143 43.0163 36.8604L42.735 36.7666C42.5089 36.6913 42.2722 36.6528 42.0339 36.6528C41.6897 36.6528 41.3502 36.733 41.0423 36.8869L39.7441 37.536L37.941 38.6179C37.6761 38.7769 37.3728 38.8608 37.0638 38.8608C36.5271 38.8608 36.0218 38.6082 35.6998 38.1788L35.4164 37.801C35.0724 37.3424 34.8865 36.7845 34.8865 36.2112V34.8864V33.8162C34.8865 33.0626 35.0097 32.3088 35.248 31.5939Z" fill="#B4F12C"/>
<path d="M28.704 25.7401C28.704 25.3633 28.7647 24.989 28.8839 24.6315L29.0468 24.1426C29.1118 23.9478 29.2212 23.7708 29.3664 23.6256C29.5116 23.4804 29.6886 23.371 29.8834 23.3061L30.5706 23.077C30.7967 23.0016 31.0335 22.9632 31.2718 22.9632C31.616 22.9632 31.9555 23.0433 32.2633 23.1973L32.3186 23.2249C32.5569 23.3441 32.7744 23.5008 32.9628 23.6892L33.5246 24.251C33.8429 24.5693 34.1289 24.9182 34.3786 25.2928L34.5362 25.5291C34.7686 25.8777 34.9535 26.2558 35.086 26.6534C35.2463 27.1341 35.328 27.6375 35.328 28.1443V29.4436C35.328 29.8285 35.2384 30.208 35.0663 30.5522L35.0436 30.5975C34.9395 30.8058 34.8024 30.996 34.6378 31.1606C34.2315 31.5669 33.6804 31.7952 33.1057 31.7952H33.0513C32.8043 31.7952 32.5589 31.7554 32.3246 31.6773L32.1387 31.6153C31.6224 31.4432 31.1532 31.1533 30.7684 30.7684L30.7314 30.7314C30.5578 30.5578 30.4018 30.3675 30.2656 30.1633L30.0949 29.9072C29.7579 29.4017 29.4898 28.8536 29.2977 28.2772L29.1456 27.8208L28.9134 27.1244C28.7747 26.7082 28.704 26.2723 28.704 25.8336V25.7401Z" fill="#B4F12C"/>
<path d="M49.6954 24.4965C50.0587 24.0549 50.5314 23.7162 51.0664 23.5141C51.2588 23.4414 51.4577 23.387 51.6603 23.3516L51.9312 23.3043C52.1743 23.2619 52.4227 23.2583 52.667 23.2937L52.8156 23.3152C53.2169 23.3734 53.5887 23.5597 53.8754 23.8464L53.8958 23.8668C54.1756 24.1466 54.421 24.4587 54.627 24.7965L54.7297 24.965C54.8134 25.1022 54.8848 25.2465 54.9433 25.3962C55.1118 25.8279 55.1682 26.2954 55.1073 26.7548L54.9513 27.9313C54.8879 28.4095 54.7409 28.8727 54.517 29.2999C54.3118 29.6914 54.0449 30.0473 53.7264 30.3538L52.5905 31.4471C52.3983 31.6321 52.1656 31.7699 51.911 31.8494C51.5508 31.9618 51.1636 31.9526 50.8092 31.8232L50.4746 31.701C49.8602 31.4767 49.3426 31.0381 49.0177 30.4704C48.7712 30.0923 48.64 29.6507 48.64 29.1993L48.64 29.1456L48.5761 27.8208L48.6152 26.996C48.6316 26.6487 48.6991 26.3056 48.8154 25.9779C48.9071 25.7195 49.0285 25.4726 49.1772 25.2421L49.5232 24.7058L49.6954 24.4965Z" fill="#B4F12C"/>
<path d="M34.4448 19.574C34.4448 19.1892 34.5344 18.8096 34.7065 18.4654C34.8257 18.2271 34.9825 18.0096 35.1709 17.8212L35.4852 17.5069C35.6736 17.3185 35.8911 17.1617 36.1294 17.0425L36.2578 16.9783C36.5176 16.8484 36.804 16.7808 37.0944 16.7808C37.3848 16.7808 37.6713 16.8484 37.931 16.9783L38.0594 17.0425C38.2977 17.1617 38.5153 17.3185 38.7037 17.5069L39.3024 18.1056L39.4874 18.2906C39.9499 18.7531 40.3347 19.2871 40.6272 19.872L40.6739 19.9653C40.9336 20.4848 41.0688 21.0576 41.0688 21.6384V23.8786C41.0688 24.1479 41.0061 24.4134 40.8857 24.6542C40.7179 24.9898 40.4458 25.2619 40.1102 25.4297L39.744 25.6128L39.2558 25.8569C38.9961 25.9868 38.7096 26.0544 38.4192 26.0544C38.1288 26.0544 37.8424 25.9868 37.5826 25.8569L37.4542 25.7927C37.2159 25.6736 36.9984 25.5168 36.81 25.3284L36.6528 25.1712L36.4679 24.9863C36.0054 24.5238 35.6205 23.9898 35.328 23.4048L35.0766 22.902C34.95 22.6488 34.8415 22.3868 34.7519 22.1181L34.7447 22.0965C34.5461 21.5006 34.4448 20.8766 34.4448 20.2485V19.574Z" fill="#B4F12C"/>
<path d="M47.5301 25.1039C47.2875 25.4026 46.9787 25.6408 46.6281 25.7995C46.3854 25.9094 46.1266 25.9795 45.8616 26.007L45.4194 26.0529C45.1544 26.0804 44.8867 26.0649 44.6266 26.0072L44.4864 25.9761C44.2029 25.9132 43.9379 25.7852 43.7125 25.6021C43.487 25.419 43.3073 25.186 43.1875 24.9215L42.9624 24.4242L42.5735 23.1234C42.4542 22.7243 42.3936 22.3101 42.3936 21.8936C42.3936 21.4321 42.468 20.9736 42.6139 20.5359L42.6643 20.3846C42.7779 20.044 42.929 19.717 43.1149 19.4098C43.2843 19.1299 43.4817 18.8679 43.7039 18.6278L43.8235 18.4986C44.2245 18.0656 44.6819 17.6886 45.1835 17.3778L45.3593 17.2689C45.9432 17.0045 46.5971 16.9367 47.2228 17.0755L47.7557 17.1938C48.0392 17.2567 48.3042 17.3847 48.5296 17.5678C48.7551 17.7509 48.9348 17.9839 49.0546 18.2484L49.1138 18.3792C49.2237 18.622 49.2937 18.8808 49.3212 19.1458L49.3442 19.3669L49.3712 19.6271C49.4387 20.2776 49.4009 20.9348 49.2592 21.5733L49.1374 22.122C49.0761 22.3985 48.9952 22.6703 48.8954 22.9353L48.8873 22.9567C48.6659 23.5444 48.3512 24.0927 47.9553 24.5802L47.5301 25.1039Z" fill="#B4F12C"/>
</svg>
