<svg width="897" height="840" viewBox="0 0 897 840" fill="none" xmlns="http://www.w3.org/2000/svg">
<path d="M609.497 22.0608C610.161 19.4028 611.278 16.8788 612.798 14.5991C617.231 7.94931 624.694 3.95508 632.686 3.95508H635.746C637.697 3.95508 639.642 4.14775 641.555 4.53029L656.66 7.55133C660.247 8.26864 663.541 10.0315 666.127 12.6178C669.601 16.0922 671.553 20.8045 671.553 25.718V50.9184V73.5567C671.553 80.3551 672.387 87.1278 674.036 93.7232C675.507 99.6088 677.618 105.316 680.332 110.742L685.642 121.363L694.56 139.199C697.995 146.068 702.259 152.49 707.256 158.321L722.756 176.404C726.186 180.405 729.272 184.687 731.983 189.206L741.998 205.897L748.493 221.051C753.504 232.743 756.087 245.331 756.087 258.051V304.52V314.285C756.087 320.167 754.346 325.917 751.084 330.812L747.785 335.759C747.071 336.831 746.089 337.698 744.936 338.274C740.907 340.289 736.028 338.267 734.603 333.994L732.606 328.002L720.967 296.966C719.336 292.616 717.384 288.392 715.128 284.331L702.796 262.134C697.659 252.887 690.997 244.575 683.091 237.547L652.768 210.594L629.286 187.112L614.228 168.29C611.763 165.208 609.862 161.714 608.614 157.97C606.773 152.447 606.405 146.539 607.547 140.83L610.501 126.06L614.15 107.813C614.847 104.332 615.197 100.79 615.197 97.239C615.197 91.4436 614.263 85.6862 612.43 80.1882L610.501 74.4001L608.083 64.727C606.57 58.675 605.805 52.4603 605.805 46.2221V44.874C605.805 39.5311 606.46 34.2084 607.756 29.0251L609.497 22.0608Z" fill="#B4F12C" fill-opacity="0.15"/>
<path d="M292.276 22.0835C291.595 19.4297 290.463 16.9127 288.929 14.6426C284.454 8.02056 276.966 4.073 268.974 4.12289L265.915 4.14199C263.964 4.15417 262.02 4.35898 260.109 4.75345L245.023 7.86873C241.441 8.60842 238.158 10.3918 235.588 12.9942C232.136 16.4902 230.213 21.2146 230.244 26.128L230.401 51.3279L230.57 78.4203C230.594 82.26 230.147 86.0882 229.239 89.8191L227.247 98.0069C226.436 101.336 225.264 104.567 223.751 107.641L216.752 121.86L205.393 144.938C203.697 148.383 201.585 151.607 199.104 154.538L177.425 180.153C175.723 182.164 174.193 184.314 172.851 186.582L160.925 206.744L150.783 230.822C148.315 236.683 147.062 242.985 147.102 249.345L147.452 305.453L147.513 315.217C147.55 321.099 149.327 326.838 152.62 331.712L155.949 336.639C156.67 337.706 157.658 338.567 158.813 339.136C162.855 341.125 167.722 339.074 169.12 334.791L171.08 328.787L183.729 294.404C184.531 292.224 185.494 290.106 186.609 288.069L204.315 255.726C206.854 251.086 210.159 246.909 214.09 243.371L250.183 210.883L273.518 187.255L288.458 168.339C290.904 165.242 292.783 161.736 294.007 157.984C295.814 152.45 296.145 146.54 294.968 140.838L291.921 126.087L288.019 107.189C287.394 104.16 287.069 101.077 287.05 97.9846L287.038 96.167C287.007 91.1194 287.789 86.0997 289.356 81.3012L291.599 74.428L294.811 61.2312C295.719 57.5003 296.166 53.6721 296.142 49.8324L296.097 42.6101C296.073 38.7704 295.578 34.9481 294.623 31.2288L292.276 22.0835Z" fill="#B4F12C" fill-opacity="0.15"/>
<path d="M128.267 22.1322C131.533 16.8326 135.906 12.3013 141.085 8.84829C145.206 6.10077 149.769 4.08226 154.575 2.88095L161.414 1.1712C164.525 0.393335 167.72 0 170.927 0H173.964C178.057 0 182.093 0.95287 185.754 2.78315C188.288 4.05032 190.602 5.71778 192.605 7.72135L195.216 10.3318C197.688 12.8039 199.563 15.8079 200.698 19.1147C201.522 21.5146 201.942 24.0344 201.942 26.5718V41.5248V53.2091C201.942 57.9364 201.586 62.6569 200.875 67.3304L198.973 79.8377L197.246 88.4881L195.81 92.7957C193.643 99.2971 190.771 105.542 187.245 111.418L178.461 126.059L168.377 139.504C165.71 143.06 162.794 146.421 159.652 149.564L159.219 149.997C150.224 158.992 143.15 169.719 138.426 181.53L136.194 187.111L122.105 234.075L117.408 252.86L114.963 267.532C113.47 276.489 113.284 285.614 114.41 294.624L117.408 318.609L124.976 348.878C126.191 353.738 127.792 358.492 129.766 363.097L140.89 389.054L164.372 431.321L188.476 471.494C191.187 476.013 194.274 480.295 197.703 484.296L220.728 511.158L253.602 544.033C258.173 547.951 264.551 542.063 261.01 537.194L248.906 520.551L211.576 457.09C205.218 446.281 201.089 434.31 199.431 421.88L193.941 380.702C193.016 373.768 192.869 366.752 193.503 359.785L197.246 318.609L200.277 294.359C201.318 286.037 206.448 278.785 213.95 275.034C223.607 270.206 235.27 272.098 242.905 279.733L247.466 284.294C251.492 288.321 254.444 293.293 256.051 298.756L271.487 351.241C275.178 363.787 281.447 375.425 289.895 385.409L328.743 431.321L371.01 482.98L417.974 544.033L435.637 574.943C443.553 588.797 464.031 587.151 469.634 572.211L491.671 524.464C495.74 515.647 501.152 507.514 507.714 500.356L544.576 460.142C547.835 456.588 550.815 452.787 553.49 448.775L587.042 398.446L615.22 351.483L622.875 338.725C627.126 331.639 630.006 323.817 631.365 315.666L632.433 309.254C633.466 303.058 635.973 297.2 639.742 292.174L641.277 290.128C645.687 284.248 651.987 280.065 659.118 278.282L660.711 277.884C664.761 276.871 668.998 276.871 673.048 277.884C680.972 279.865 687.462 285.53 690.495 293.113L693.168 299.795C694.423 302.932 695.27 306.216 695.689 309.568L699.754 342.09V374.965V385.054C699.754 397.003 697.474 408.843 693.036 419.937L690.361 426.624L684.091 448.57C682.017 455.829 679.075 462.812 675.33 469.367L662.183 492.373L656.423 506.774C654.008 512.812 650.973 518.582 647.366 523.992L634.005 544.033C631.333 548.041 636.605 552.551 640.152 549.291L645.872 544.033L685.665 501.766L714.968 465.136C720.453 458.281 724.949 450.69 728.326 442.586L746.717 398.446L774.895 342.09L775.602 340.912C784.359 326.318 788.984 309.618 788.984 292.598C788.984 284.92 788.043 277.271 786.181 269.823L782.092 253.47C780.43 246.821 778.045 240.375 774.981 234.245L756.11 196.504L732.628 144.844L709.147 102.577L698.043 76.6689C696.058 72.0373 694.56 67.2122 693.571 62.271L692.063 54.7289C690.942 49.127 691.08 43.3462 692.466 37.8039C694.162 31.0195 697.67 24.8237 702.615 19.8788L705.508 16.9857C707.918 14.5755 710.701 12.5696 713.75 11.0453C722.678 6.58126 733.186 6.58126 742.114 11.0453L747.799 13.8874C753.28 16.6282 758.135 20.4736 762.059 25.1817L779.592 46.2211L826.555 116.666L865.022 172.23C867.552 175.884 869.82 179.714 871.807 183.689L883.762 207.598C889.399 218.872 892.709 231.165 893.495 243.745L897 299.823L892.304 360.876L882.911 412.535L868.822 464.195L854.733 501.766L826.555 553.425L804.326 590.474C800.375 597.059 795.631 603.135 790.201 608.565L770.223 628.543C767.08 631.686 763.718 634.601 760.163 637.268L709.147 675.53L665.281 715.408C660.101 720.117 654.411 724.232 648.317 727.677L549.471 783.546L499.757 813.374C472.22 829.896 438.151 831.205 409.427 816.843L399.189 811.724L314.654 760.064L248.906 722.493L178.461 670.834L126.801 623.87L89.2304 586.3L76.6611 570.588C72.5286 565.422 68.9534 559.835 65.995 553.918L56.356 534.64L36.9303 491.903C34.2337 485.971 32.1617 479.774 30.748 473.412L23.4817 440.713L14.089 398.446L4.69634 346.787L0 290.431V241.001C0 236.395 0.455017 231.799 1.35842 227.282C3.5517 216.316 8.34237 206.035 15.3287 197.302L23.4817 187.111L46.9634 149.54L70.445 121.362L83.0143 105.651C87.1468 100.485 90.722 94.8975 93.6804 88.9807L98.623 79.0954L108.016 60.3101L112.712 50.9174L122.105 32.1321L128.267 22.1322Z" fill="#B4F12C" fill-opacity="0.15"/>
<path d="M374.825 335.996C378.456 325.102 384.6 315.125 392.72 307.005C396.996 302.729 401.781 298.993 406.966 295.882L416.028 290.445C420.412 287.814 425.161 285.847 430.121 284.607C437.564 282.747 445.328 282.562 452.852 284.066L454.69 284.434C461.451 285.786 467.929 288.291 473.842 291.839L479.848 295.442C485.521 298.846 490.765 302.943 495.442 307.62C503.171 315.349 509.267 324.585 513.327 334.733C515.481 340.118 517.048 345.719 518.001 351.439L518.988 357.363C520.492 366.387 520.344 375.609 518.55 384.58L517.498 389.838C516.88 392.928 515.853 395.921 514.444 398.74L513.194 401.239C512.317 402.992 511.164 404.592 509.778 405.978C505.249 410.507 498.676 412.328 492.462 410.775L486.743 409.345C484.715 408.838 482.749 408.111 480.88 407.176L479.14 406.306C475.934 404.703 473.008 402.594 470.473 400.06C466.813 396.399 462.35 393.641 457.439 392.004L454.448 391.007C452.044 390.206 449.526 389.797 446.992 389.797C443.331 389.797 439.721 390.649 436.447 392.286L422.64 399.19L403.465 410.695C400.647 412.385 397.422 413.279 394.136 413.279C388.428 413.279 383.054 410.591 379.63 406.025L376.616 402.007C372.958 397.13 370.98 391.198 370.98 385.101V371.012V359.63C370.98 351.616 372.291 343.599 374.825 335.996Z" fill="#9449C3" fill-opacity="0.15"/>
<path d="M305.273 273.741C305.273 269.734 305.919 265.753 307.187 261.951L308.92 256.752C309.61 254.68 310.774 252.798 312.318 251.253C313.862 249.709 315.745 248.546 317.817 247.855L325.125 245.419C327.529 244.618 330.047 244.209 332.581 244.209C336.242 244.209 339.852 245.061 343.126 246.698L343.714 246.992C346.248 248.259 348.562 249.927 350.565 251.93L356.54 257.905C359.925 261.289 362.967 265 365.622 268.983L367.298 271.496C369.77 275.204 371.736 279.226 373.145 283.453C374.85 288.566 375.718 293.92 375.718 299.309V313.127C375.718 317.22 374.766 321.256 372.935 324.917L372.694 325.399C371.587 327.614 370.129 329.636 368.378 331.387C364.057 335.708 358.196 338.136 352.085 338.136H351.506C348.88 338.136 346.27 337.712 343.778 336.882L341.801 336.222C336.31 334.392 331.321 331.309 327.228 327.216L326.834 326.822C324.988 324.976 323.329 322.953 321.881 320.781L320.066 318.058C316.482 312.682 313.631 306.852 311.588 300.722L309.97 295.869L307.501 288.463C306.026 284.036 305.273 279.401 305.273 274.735V273.741Z" fill="#9449C3" fill-opacity="0.15"/>
<path d="M528.499 260.514C532.363 255.818 537.39 252.216 543.079 250.067C545.126 249.294 547.24 248.715 549.395 248.339L552.276 247.836C554.862 247.384 557.503 247.346 560.101 247.723L561.682 247.952C565.95 248.57 569.903 250.552 572.953 253.601L573.17 253.817C576.145 256.793 578.755 260.112 580.946 263.705L582.038 265.497C582.928 266.956 583.688 268.49 584.309 270.082C586.101 274.674 586.701 279.645 586.053 284.531L584.394 297.043C583.72 302.128 582.157 307.055 579.776 311.598C577.594 315.761 574.755 319.546 571.368 322.806L559.288 334.433C557.244 336.4 554.77 337.865 552.061 338.711C548.231 339.907 544.113 339.809 540.344 338.433L536.786 337.133C530.252 334.747 524.747 330.083 521.292 324.046C518.671 320.025 517.275 315.328 517.275 310.528L517.275 309.957L516.596 295.868L517.011 287.096C517.186 283.402 517.903 279.754 519.14 276.269C520.116 273.521 521.407 270.895 522.988 268.444L526.667 262.74L528.499 260.514Z" fill="#9449C3" fill-opacity="0.15"/>
<path d="M366.305 208.166C366.305 204.073 367.258 200.037 369.088 196.376C370.355 193.842 372.022 191.528 374.026 189.525L377.369 186.182C379.372 184.179 381.686 182.511 384.22 181.244L385.586 180.561C388.348 179.18 391.394 178.461 394.483 178.461C397.571 178.461 400.617 179.18 403.38 180.561L404.745 181.244C407.28 182.511 409.593 184.179 411.597 186.182L417.964 192.55L419.931 194.517C424.85 199.435 428.943 205.114 432.053 211.335L432.549 212.327C435.312 217.852 436.75 223.944 436.75 230.121V253.945C436.75 256.808 436.083 259.632 434.803 262.193C433.018 265.762 430.124 268.656 426.555 270.441L422.661 272.388L417.469 274.984C414.706 276.365 411.66 277.084 408.572 277.084C405.483 277.084 402.437 276.365 399.675 274.984L398.309 274.301C395.775 273.034 393.461 271.366 391.458 269.363L389.786 267.691L387.819 265.724C382.901 260.806 378.808 255.127 375.697 248.906L373.024 243.559C371.677 240.865 370.523 238.079 369.571 235.222L369.494 234.992C367.382 228.655 366.305 222.019 366.305 215.339V208.166Z" fill="#9449C3" fill-opacity="0.15"/>
<path d="M505.447 266.975C502.867 270.152 499.583 272.685 495.855 274.373C493.274 275.542 490.521 276.286 487.703 276.579L483.001 277.067C480.182 277.359 477.335 277.195 474.569 276.582L473.078 276.251C470.063 275.582 467.245 274.22 464.848 272.273C462.45 270.326 460.539 267.848 459.265 265.035L456.871 259.746L452.735 245.913C451.466 241.669 450.821 237.263 450.821 232.834C450.821 227.926 451.613 223.05 453.164 218.395L453.701 216.786C454.908 213.163 456.516 209.686 458.493 206.419C460.294 203.442 462.393 200.656 464.757 198.103L466.029 196.729C470.292 192.124 475.157 188.115 480.492 184.809L482.361 183.651C488.57 180.84 495.525 180.118 502.179 181.595L507.846 182.852C510.861 183.521 513.679 184.883 516.077 186.83C518.475 188.777 520.386 191.255 521.66 194.068L522.29 195.46C523.458 198.041 524.203 200.794 524.496 203.612L524.74 205.963L525.027 208.73C525.745 215.648 525.343 222.637 523.836 229.427L522.541 235.263C521.888 238.203 521.028 241.094 519.967 243.912L519.881 244.139C517.526 250.39 514.179 256.22 509.969 261.406L505.447 266.975Z" fill="#9449C3" fill-opacity="0.15"/>
</svg>
