<svg width="897" height="888" viewBox="0 0 897 888" fill="none" xmlns="http://www.w3.org/2000/svg">
<path d="M616.497 18.1057C617.161 15.4477 618.278 12.9237 619.798 10.644C624.231 3.99423 631.694 0 639.686 0H642.746C644.697 0 646.642 0.192671 648.555 0.575208L663.66 3.59625C667.247 4.31356 670.541 6.07644 673.127 8.66274C676.601 12.1371 678.553 16.8494 678.553 21.7629V46.9633V69.6016C678.553 76.4 679.387 83.1727 681.036 89.7681C682.507 95.6537 684.618 101.361 687.332 106.787L692.642 117.408L701.56 135.244C704.995 142.113 709.259 148.535 714.256 154.366L729.756 172.449C733.186 176.45 736.272 180.732 738.983 185.251L748.998 201.942L755.493 217.096C760.504 228.788 763.087 241.376 763.087 254.096V300.565V310.33C763.087 316.212 761.346 321.962 758.084 326.856L754.785 331.804C754.071 332.876 753.089 333.743 751.936 334.319C747.907 336.334 743.028 334.312 741.603 330.039L739.606 324.047L727.967 293.011C726.336 288.661 724.384 284.437 722.128 280.376L709.796 258.179C704.659 248.932 697.997 240.62 690.091 233.592L659.768 206.639L636.286 183.157L621.228 164.335C618.763 161.253 616.862 157.759 615.614 154.015C613.773 148.492 613.405 142.583 614.547 136.874L617.501 122.105L621.15 103.858C621.847 100.377 622.197 96.8346 622.197 93.2839C622.197 87.4886 621.263 81.7311 619.43 76.2331L617.501 70.445L615.083 60.7719C613.57 54.7199 612.805 48.5052 612.805 42.267V40.9189C612.805 35.576 613.46 30.2533 614.756 25.07L616.497 18.1057Z" fill="#B4F12C" fill-opacity="0.15"/>
<path d="M299.276 18.1284C298.595 15.4746 297.463 12.9576 295.929 10.6875C291.454 4.06548 283.966 0.117919 275.974 0.16781L272.915 0.186911C270.964 0.199088 269.02 0.403902 267.109 0.798371L252.023 3.91365C248.441 4.65334 245.158 6.43675 242.588 9.03914C239.136 12.5351 237.213 17.2595 237.244 22.1729L237.401 47.3729L237.57 74.4652C237.594 78.305 237.147 82.1331 236.239 85.864L234.247 94.0518C233.436 97.3812 232.264 100.612 230.751 103.686L223.752 117.904L212.393 140.983C210.697 144.428 208.585 147.652 206.104 150.583L184.425 176.197C182.723 178.209 181.193 180.359 179.851 182.627L167.925 202.789L157.783 226.867C155.315 232.728 154.062 239.03 154.102 245.39L154.452 301.498L154.513 311.262C154.55 317.144 156.327 322.883 159.62 327.757L162.949 332.684C163.67 333.751 164.658 334.612 165.813 335.181C169.855 337.17 174.722 335.119 176.12 330.836L178.08 324.832L190.729 290.449C191.531 288.269 192.494 286.151 193.609 284.114L211.315 251.771C213.854 247.131 217.159 242.954 221.09 239.416L257.183 206.928L280.518 183.3L295.458 164.384C297.904 161.287 299.783 157.781 301.007 154.029C302.814 148.495 303.145 142.584 301.968 136.883L298.921 122.132L295.019 103.234C294.394 100.205 294.069 97.1221 294.05 94.0295L294.038 92.212C294.007 87.1643 294.789 82.1446 296.356 77.3461L298.599 70.473L301.811 57.2761C302.719 53.5452 303.166 49.7171 303.142 45.8773L303.097 38.655C303.073 34.8153 302.578 30.993 301.623 27.2737L299.276 18.1284Z" fill="#B4F12C" fill-opacity="0.15"/>
<path d="M128.267 70.1773C131.533 64.8778 135.906 60.3465 141.085 56.8935C145.206 54.1459 149.769 52.1274 154.575 50.9261L161.414 49.2164C164.525 48.4385 167.72 48.0452 170.927 48.0452H173.964C178.057 48.0452 182.093 48.998 185.754 50.8283C188.288 52.0955 190.602 53.7629 192.605 55.7665L195.216 58.3769C197.688 60.8491 199.563 63.8531 200.698 67.1598C201.522 69.5597 201.942 72.0796 201.942 74.617V89.5699V101.254C201.942 105.982 201.586 110.702 200.875 115.376L198.973 127.883L197.246 136.533L195.81 140.841C193.643 147.342 190.771 153.587 187.245 159.464L178.461 174.104L168.377 187.549C165.71 191.105 162.794 194.467 159.652 197.609L159.219 198.042C150.224 207.037 143.15 217.765 138.426 229.575L136.194 235.156L122.105 282.12L117.408 300.905L114.963 315.578C113.47 324.534 113.284 333.659 114.41 342.669L117.408 366.654L124.976 396.923C126.191 401.783 127.792 406.538 129.766 411.142L140.89 437.099L164.372 479.366L188.476 519.539C191.187 524.058 194.274 528.34 197.703 532.341L220.728 559.203L253.602 592.078C258.173 595.996 264.551 590.108 261.01 585.239L248.906 568.596L211.576 505.135C205.218 494.327 201.089 482.355 199.431 469.926L193.941 428.748C193.016 421.813 192.869 414.797 193.503 407.83L197.246 366.654L200.277 342.404C201.318 334.082 206.448 326.83 213.95 323.079C223.607 318.251 235.27 320.144 242.905 327.778L247.466 332.339C251.492 336.366 254.444 341.338 256.051 346.801L271.487 399.286C275.178 411.833 281.447 423.47 289.895 433.454L328.743 479.366L371.01 531.025L417.974 592.078L435.637 622.988C443.553 636.842 464.031 635.196 469.634 620.256L491.671 572.509C495.74 563.692 501.152 555.559 507.714 548.401L544.576 508.187C547.835 504.633 550.815 500.832 553.49 496.82L587.042 446.491L615.22 399.528L622.875 386.77C627.126 379.684 630.006 371.862 631.365 363.711L632.433 357.299C633.466 351.103 635.973 345.245 639.742 340.22L641.277 338.173C645.687 332.293 651.987 328.11 659.118 326.327L660.711 325.929C664.761 324.916 668.998 324.916 673.048 325.929C680.972 327.91 687.462 333.575 690.495 341.158L693.168 347.84C694.423 350.977 695.27 354.262 695.689 357.614L699.754 390.135V423.01V433.099C699.754 445.048 697.474 456.888 693.036 467.983L690.361 474.669L684.091 496.615C682.017 503.874 679.075 510.857 675.33 517.412L662.183 540.418L656.423 554.819C654.008 560.857 650.973 566.627 647.366 572.037L634.005 592.078C631.333 596.086 636.605 600.597 640.152 597.336L645.872 592.078L685.665 549.811L714.968 513.181C720.453 506.326 724.949 498.735 728.326 490.632L746.717 446.491L774.895 390.135L775.602 388.957C784.359 374.363 788.984 357.663 788.984 340.643C788.984 332.965 788.043 325.317 786.181 317.868L782.092 301.515C780.43 294.867 778.045 288.42 774.981 282.29L756.11 244.549L732.628 192.889L709.147 150.622L698.043 124.714C696.058 120.082 694.56 115.257 693.571 110.316L692.063 102.774C690.942 97.1721 691.08 91.3913 692.466 85.849C694.162 79.0647 697.67 72.8688 702.615 67.9239L705.508 65.0309C707.918 62.6207 710.701 60.6148 713.75 59.0904C722.678 54.6264 733.186 54.6264 742.114 59.0904L747.799 61.9326C753.28 64.6734 758.135 68.5187 762.059 73.2268L779.592 94.2663L826.555 164.711L865.022 220.275C867.552 223.93 869.82 227.759 871.807 231.734L883.762 255.643C889.399 266.917 892.709 279.21 893.495 291.79L897 347.868L892.304 408.921L882.911 460.58L868.822 512.24L854.733 549.811L826.555 601.47L804.326 638.519C800.375 645.104 795.631 651.18 790.201 656.61L770.223 676.588C767.08 679.731 763.718 682.647 760.163 685.313L709.147 723.575L665.281 763.453C660.101 768.162 654.411 772.277 648.317 775.722L549.471 831.591L499.757 861.419C472.22 877.941 438.151 879.25 409.427 864.888L399.189 859.769L314.654 808.109L248.906 770.539L178.461 718.879L126.801 671.916L89.2304 634.345L76.6611 618.633C72.5286 613.468 68.9534 607.88 65.995 601.963L56.356 582.685L36.9303 539.949C34.2337 534.016 32.1617 527.819 30.748 521.457L23.4817 488.758L14.089 446.491L4.69634 394.832L0 338.476V289.046C0 284.44 0.455017 279.845 1.35842 275.328C3.5517 264.361 8.34237 254.08 15.3287 245.348L23.4817 235.156L46.9634 197.586L70.445 169.408L83.0143 153.696C87.1468 148.53 90.722 142.943 93.6804 137.026L98.623 127.141L108.016 108.355L112.712 98.9626L122.105 80.1773L128.267 70.1773Z" fill="#B4F12C" fill-opacity="0.15"/>
<path d="M381.825 332.04C385.456 321.147 391.6 311.169 399.72 303.05C403.996 298.773 408.781 295.038 413.966 291.926L423.028 286.489C427.412 283.859 432.161 281.892 437.121 280.652C444.564 278.791 452.328 278.606 459.852 280.111L461.69 280.479C468.451 281.831 474.929 284.335 480.842 287.883L486.848 291.487C492.521 294.89 497.765 298.987 502.442 303.664C510.171 311.393 516.267 320.629 520.327 330.778C522.481 336.162 524.048 341.763 525.001 347.484L525.988 353.408C527.492 362.431 527.344 371.653 525.55 380.624L524.498 385.882C523.88 388.972 522.853 391.966 521.444 394.784L520.194 397.284C519.317 399.037 518.164 400.637 516.778 402.023C512.249 406.552 505.676 408.373 499.462 406.819L493.743 405.389C491.715 404.882 489.749 404.155 487.88 403.22L486.14 402.35C482.934 400.748 480.008 398.638 477.473 396.104C473.813 392.443 469.35 389.685 464.439 388.048L461.448 387.051C459.044 386.25 456.526 385.841 453.992 385.841C450.331 385.841 446.721 386.694 443.447 388.331L429.64 395.234L410.465 406.739C407.647 408.43 404.422 409.323 401.136 409.323C395.428 409.323 390.054 406.636 386.63 402.07L383.616 398.052C379.958 393.174 377.98 387.242 377.98 381.145V367.056V355.674C377.98 347.66 379.291 339.643 381.825 332.04Z" fill="#9449C3" fill-opacity="0.15"/>
<path d="M312.273 269.786C312.273 265.779 312.919 261.798 314.187 257.996L315.92 252.797C316.61 250.725 317.774 248.843 319.318 247.299C320.862 245.754 322.745 244.591 324.817 243.9L332.125 241.464C334.529 240.663 337.047 240.254 339.581 240.254C343.242 240.254 346.852 241.106 350.126 242.743L350.714 243.037C353.248 244.304 355.562 245.972 357.565 247.976L363.54 253.95C366.925 257.335 369.967 261.046 372.622 265.029L374.298 267.542C376.77 271.25 378.736 275.271 380.145 279.499C381.85 284.611 382.718 289.965 382.718 295.354V309.172C382.718 313.265 381.766 317.301 379.935 320.962L379.694 321.444C378.587 323.659 377.129 325.681 375.378 327.432C371.057 331.753 365.196 334.181 359.085 334.181H358.506C355.88 334.181 353.27 333.757 350.778 332.927L348.801 332.268C343.31 330.437 338.321 327.354 334.228 323.261L333.834 322.867C331.988 321.022 330.329 318.998 328.881 316.826L327.066 314.103C323.482 308.727 320.631 302.897 318.588 296.768L316.97 291.914L314.501 284.508C313.026 280.081 312.273 275.446 312.273 270.78V269.786Z" fill="#9449C3" fill-opacity="0.15"/>
<path d="M535.499 256.56C539.363 251.864 544.39 248.262 550.079 246.112C552.126 245.339 554.24 244.761 556.395 244.384L559.276 243.881C561.862 243.43 564.503 243.392 567.101 243.768L568.682 243.997C572.95 244.616 576.903 246.597 579.953 249.646L580.17 249.863C583.145 252.839 585.755 256.158 587.946 259.751L589.038 261.543C589.928 263.002 590.688 264.536 591.309 266.128C593.101 270.72 593.701 275.691 593.053 280.577L591.394 293.089C590.72 298.174 589.157 303.1 586.776 307.643C584.594 311.807 581.755 315.592 578.368 318.851L566.288 330.478C564.244 332.446 561.77 333.911 559.061 334.756C555.231 335.952 551.113 335.855 547.344 334.478L543.786 333.179C537.252 330.793 531.747 326.129 528.292 320.092C525.671 316.071 524.275 311.374 524.275 306.574L524.275 306.002L523.596 291.913L524.011 283.142C524.186 279.448 524.903 275.8 526.14 272.315C527.116 269.566 528.407 266.94 529.988 264.489L533.667 258.785L535.499 256.56Z" fill="#9449C3" fill-opacity="0.15"/>
<path d="M373.305 204.212C373.305 200.119 374.258 196.083 376.088 192.422C377.355 189.888 379.022 187.574 381.026 185.571L384.369 182.228C386.372 180.225 388.686 178.557 391.22 177.29L392.586 176.607C395.348 175.226 398.394 174.507 401.483 174.507C404.571 174.507 407.617 175.226 410.38 176.607L411.745 177.29C414.28 178.557 416.593 180.225 418.597 182.228L424.964 188.596L426.931 190.563C431.85 195.481 435.943 201.16 439.053 207.381L439.549 208.373C442.312 213.898 443.75 219.99 443.75 226.167V249.991C443.75 252.854 443.083 255.678 441.803 258.239C440.018 261.808 437.124 264.702 433.555 266.486L429.661 268.434L424.469 271.03C421.706 272.411 418.66 273.13 415.572 273.13C412.483 273.13 409.437 272.411 406.675 271.03L405.309 270.347C402.775 269.08 400.461 267.412 398.458 265.409L396.786 263.737L394.819 261.77C389.901 256.852 385.808 251.173 382.697 244.952L380.024 239.605C378.677 236.911 377.523 234.125 376.571 231.268L376.494 231.038C374.382 224.701 373.305 218.065 373.305 211.385V204.212Z" fill="#9449C3" fill-opacity="0.15"/>
<path d="M512.447 263.02C509.867 266.198 506.583 268.73 502.855 270.419C500.274 271.587 497.521 272.332 494.703 272.625L490.001 273.112C487.182 273.405 484.335 273.241 481.569 272.627L480.078 272.297C477.063 271.627 474.245 270.266 471.848 268.319C469.45 266.372 467.539 263.894 466.265 261.08L463.871 255.792L459.735 241.958C458.466 237.714 457.821 233.309 457.821 228.879C457.821 223.972 458.613 219.096 460.164 214.44L460.701 212.832C461.908 209.209 463.516 205.732 465.493 202.465C467.294 199.488 469.393 196.702 471.757 194.148L473.029 192.775C477.292 188.17 482.157 184.16 487.492 180.855L489.361 179.697C495.57 176.885 502.525 176.164 509.179 177.64L514.846 178.898C517.861 179.567 520.679 180.929 523.077 182.876C525.475 184.822 527.386 187.301 528.66 190.114L529.29 191.505C530.458 194.086 531.203 196.839 531.496 199.658L531.74 202.008L532.027 204.776C532.745 211.694 532.343 218.683 530.836 225.473L529.541 231.309C528.888 234.249 528.028 237.139 526.967 239.957L526.881 240.185C524.526 246.436 521.179 252.266 516.969 257.452L512.447 263.02Z" fill="#9449C3" fill-opacity="0.15"/>
</svg>
