<svg width="46" height="37" viewBox="0 0 46 37" fill="none" xmlns="http://www.w3.org/2000/svg">
<path fill-rule="evenodd" clip-rule="evenodd" d="M27 7C27 9.20914 25.2091 11 23 11C20.7909 11 19 9.20914 19 7C19 4.79086 20.7909 3 23 3C25.2091 3 27 4.79086 27 7ZM25 7C25 8.10457 24.1046 9 23 9C21.8954 9 21 8.10457 21 7C21 5.89543 21.8954 5 23 5C24.1046 5 25 5.89543 25 7Z" fill="white"/>
<path d="M27 15C27 14.4477 26.5523 14 26 14H20C19.4477 14 19 14.4477 19 15V21H17V15C17 13.3431 18.3431 12 20 12H26C27.6569 12 29 13.3431 29 15V21H27V15Z" fill="white"/>
<path fill-rule="evenodd" clip-rule="evenodd" d="M38 20C38 22.2091 36.2091 24 34 24C31.7909 24 30 22.2091 30 20C30 17.7909 31.7909 16 34 16C36.2091 16 38 17.7909 38 20ZM36 20C36 21.1046 35.1046 22 34 22C32.8954 22 32 21.1046 32 20C32 18.8954 32.8954 18 34 18C35.1046 18 36 18.8954 36 20Z" fill="white"/>
<path d="M38 28C38 27.4477 37.5523 27 37 27H31C30.4477 27 30 27.4477 30 28V34H28V28C28 26.3431 29.3431 25 31 25H37C38.6569 25 40 26.3431 40 28V34H38V28Z" fill="white"/>
<path fill-rule="evenodd" clip-rule="evenodd" d="M16 20C16 22.2091 14.2091 24 12 24C9.79086 24 8 22.2091 8 20C8 17.7909 9.79086 16 12 16C14.2091 16 16 17.7909 16 20ZM14 20C14 21.1046 13.1046 22 12 22C10.8954 22 10 21.1046 10 20C10 18.8954 10.8954 18 12 18C13.1046 18 14 18.8954 14 20Z" fill="white"/>
<path d="M16 28C16 27.4477 15.5523 27 15 27H9C8.44772 27 8 27.4477 8 28V34H6V28C6 26.3431 7.34315 25 9 25H15C16.6569 25 18 26.3431 18 28V34H16V28Z" fill="white"/>
</svg>
