<svg width="24" height="24" viewBox="0 0 24 24" fill="none" xmlns="http://www.w3.org/2000/svg">
<path d="M13.061 18.7174C13.061 18.7174 18.7178 13.0605 20.132 11.6463C21.5462 10.2321 22.2533 6.69656 19.7785 4.22166C17.3036 1.74679 13.7681 2.4539 12.3538 3.86811C10.9396 5.28231 3.51499 12.707 2.80788 13.4141C2.10078 14.1212 1.04012 16.5961 3.16144 18.7174C5.28275 20.8387 7.75765 19.778 8.46475 19.0709C9.17185 18.3638 16.95 10.5856 17.6571 9.87851C18.3643 9.17141 18.7178 7.40366 17.6571 6.34301C16.5965 5.28231 14.8287 5.63586 14.1216 6.34301C13.4145 7.05011 7.4041 13.0605 7.4041 13.0605" stroke="#333333" stroke-width="2" stroke-linecap="round" stroke-linejoin="round"/>
</svg>
