<svg width="48" height="48" viewBox="0 0 48 48" fill="none" xmlns="http://www.w3.org/2000/svg">
<path d="M46.4994 15.7237C46.4994 17.5256 46.0098 19.0891 45.297 20.1583C44.5772 21.238 43.7475 21.6719 43.0339 21.6719C42.3203 21.6719 41.4906 21.238 40.7708 20.1583C40.058 19.0891 39.5684 17.5256 39.5684 15.7237C39.5684 13.9217 40.058 12.3582 40.7708 11.289C41.4906 10.2093 42.3203 9.77539 43.0339 9.77539C43.7475 9.77539 44.5772 10.2093 45.297 11.289C46.0098 12.3582 46.4994 13.9217 46.4994 15.7237Z" stroke="white" stroke-width="3"/>
<path d="M34.0853 7.44828C34.0853 9.25023 33.5957 10.8137 32.8829 11.883C32.1631 12.9627 31.3334 13.3966 30.6198 13.3966C29.9062 13.3966 29.0765 12.9627 28.3567 11.883C27.6439 10.8137 27.1543 9.25023 27.1543 7.44828C27.1543 5.64632 27.6439 4.08281 28.3567 3.0136C29.0765 1.9339 29.9062 1.5 30.6198 1.5C31.3334 1.5 32.1631 1.9339 32.8829 3.0136C33.5957 4.08281 34.0853 5.64632 34.0853 7.44828Z" stroke="white" stroke-width="3"/>
<path d="M20.8451 7.44828C20.8451 9.25023 20.3555 10.8137 19.6427 11.883C18.9229 12.9627 18.0932 13.3966 17.3796 13.3966C16.666 13.3966 15.8363 12.9627 15.1165 11.883C14.4037 10.8137 13.9141 9.25023 13.9141 7.44828C13.9141 5.64632 14.4037 4.08281 15.1165 3.0136C15.8363 1.9339 16.666 1.5 17.3796 1.5C18.0932 1.5 18.9229 1.9339 19.6427 3.0136C20.3555 4.08281 20.8451 5.64632 20.8451 7.44828Z" stroke="white" stroke-width="3"/>
<path d="M8.43103 15.7237C8.43103 17.5256 7.9414 19.0891 7.22859 20.1583C6.50879 21.238 5.67913 21.6719 4.96552 21.6719C4.2519 21.6719 3.42224 21.238 2.70244 20.1583C1.98963 19.0891 1.5 17.5256 1.5 15.7237C1.5 13.9217 1.98963 12.3582 2.70244 11.289C3.42224 10.2093 4.2519 9.77539 4.96552 9.77539C5.67913 9.77539 6.50879 10.2093 7.22859 11.289C7.9414 12.3582 8.43103 13.9217 8.43103 15.7237Z" stroke="white" stroke-width="3"/>
<path d="M15.8894 23.4416C17.156 21.493 19.1654 20.1479 21.4497 19.7196L22.0736 19.6026C23.0789 19.4142 24.11 19.4086 25.1172 19.5864L26.2093 19.7791C28.4651 20.1772 30.4647 21.4689 31.7551 23.3614L35.5447 28.9195L38.6542 34.6602C39.857 36.8806 40.0101 39.5208 39.0723 41.8654L38.9857 42.0819L40.3784 42.639L38.9857 42.0819C38.6891 42.8234 38.1479 43.4411 37.4519 43.8326L35.4654 44.95C33.9197 45.8195 32.0572 45.9197 30.4271 45.2211C26.5901 43.5766 22.2601 43.5076 18.3726 45.0288L17.6963 45.2934C15.961 45.9724 14.0192 45.8843 12.3525 45.051L9.96425 43.8569C9.13838 43.4439 8.51038 42.7198 8.2184 41.8439C7.45315 39.5481 7.70728 37.0346 8.91657 34.9385L12.8652 28.0943L15.8894 23.4416Z" stroke="white" stroke-width="3"/>
</svg>
