<svg width="48" height="48" viewBox="0 0 48 48" fill="none" xmlns="http://www.w3.org/2000/svg">
<g clip-path="url(#clip0_2400_20903)">
<path d="M48 0H0V48H48V0Z" fill="white" fill-opacity="0.01"/>
<path d="M24 20C27.866 20 31 16.866 31 13C31 9.13401 27.866 6 24 6C20.134 6 17 9.13401 17 13C17 16.866 20.134 20 24 20Z" stroke="white" stroke-width="2" stroke-linecap="round" stroke-linejoin="round"/>
<path d="M6 36.8V38H42V36.8C42 32.3196 42 30.0794 41.1281 28.3681C40.3611 26.8628 39.1372 25.6389 37.6319 24.8719C35.9206 24 33.6804 24 29.2 24H18.8C14.3196 24 12.0794 24 10.3681 24.8719C8.86278 25.6389 7.63893 26.8628 6.87195 28.3681C6 30.0794 6 32.3196 6 36.8Z" stroke="white" stroke-width="2" stroke-linecap="round" stroke-linejoin="round"/>
</g>
<defs>
<clipPath id="clip0_2400_20903">
<rect width="48" height="48" fill="white"/>
</clipPath>
</defs>
</svg>
