<svg width="48" height="48" viewBox="0 0 48 48" fill="none" xmlns="http://www.w3.org/2000/svg">
<path d="M39 6H9C7.34315 6 6 7.34315 6 9V39C6 40.6569 7.34315 42 9 42H39C40.6569 42 42 40.6569 42 39V9C42 7.34315 40.6569 6 39 6Z" stroke="white" stroke-width="2.5" stroke-linecap="round" stroke-linejoin="round"/>
<path d="M17.998 23.0002C20.7594 23.0002 22.998 20.7616 22.998 18.0002C22.998 15.2388 20.7594 13.0002 17.998 13.0002C15.2366 13.0002 12.998 15.2388 12.998 18.0002C12.998 20.7616 15.2366 23.0002 17.998 23.0002Z" stroke="white" stroke-width="2" stroke-linecap="round" stroke-linejoin="round"/>
<path d="M27.7881 26.2191C28.6044 25.1266 30.2508 25.1535 31.0309 26.2722L39.8057 38.8558C40.7302 40.1817 39.7815 41.9998 38.1651 41.9998H15.998L27.7881 26.2191Z" stroke="white" stroke-width="2" stroke-linecap="round" stroke-linejoin="round"/>
</svg>
