<svg width="38" height="38" viewBox="0 0 38 38" fill="none" xmlns="http://www.w3.org/2000/svg">
<path d="M11.7038 18.848C8.66377 17.328 6.61177 14.288 6.61177 10.64C6.61177 5.62402 10.7158 1.52002 15.7318 1.52002C20.7478 1.52002 24.8518 5.62402 24.8518 10.64C24.8518 15.58 20.9758 19.608 16.0358 19.76H15.9598C8.43577 19.76 2.27977 25.916 2.27977 33.44C2.27977 33.896 1.97577 34.2 1.51977 34.2C1.06377 34.2 0.759766 33.896 0.759766 33.44C0.759766 26.524 5.39577 20.672 11.7038 18.848ZM15.7318 18.24C19.9118 18.24 23.3318 14.82 23.3318 10.64C23.3318 6.46002 19.9118 3.04002 15.7318 3.04002C11.5518 3.04002 8.13177 6.46002 8.13177 10.64C8.13177 14.82 11.5518 18.24 15.7318 18.24ZM36.5558 23.256L36.7078 23.636L34.8838 25.84C34.5798 26.22 34.5798 26.828 34.8838 27.208L36.7078 29.336L36.5558 29.716C36.1758 30.78 35.6438 31.844 34.8838 32.68L34.5798 32.984L31.7678 32.528C31.3118 32.452 30.7798 32.756 30.6278 33.212L29.6398 35.948L29.2598 36.024C27.8158 36.328 26.3718 36.328 24.9278 36.024L24.4718 35.948L23.5598 33.288C23.4078 32.832 22.8758 32.528 22.4198 32.604L19.5318 33.06L19.2278 32.756C18.8478 32.376 18.5438 31.92 18.3158 31.464C18.0118 30.932 17.7078 30.324 17.5558 29.716L17.4038 29.336L19.3038 27.208C19.6078 26.828 19.6078 26.22 19.3038 25.916L17.4798 23.712L17.6318 23.332C18.0118 22.192 18.6198 21.204 19.3798 20.292L19.6838 19.988L22.4198 20.444C22.8758 20.52 23.4078 20.216 23.6358 19.76L24.6238 17.1L25.0038 17.024C26.3718 16.72 27.8158 16.72 29.2598 17.024L29.7158 17.1L30.6278 19.684C30.7798 20.14 31.3118 20.52 31.8438 20.444L34.6558 20.064L34.9598 20.368C35.3398 20.824 35.6438 21.204 35.8718 21.736C36.0998 22.116 36.3278 22.724 36.5558 23.256ZM34.4278 22.344C34.2758 22.04 34.1238 21.812 33.8958 21.508L31.9198 21.736C30.7038 21.888 29.4878 21.128 29.1078 19.988L28.4998 18.24C27.5878 18.088 26.6758 18.088 25.7638 18.24L25.0798 20.064C24.6998 21.204 23.4078 21.964 22.1918 21.736L20.2918 21.432C19.8358 21.964 19.5318 22.648 19.2278 23.256L20.5198 24.776C21.2798 25.688 21.2798 27.132 20.5198 28.044L19.2278 29.564C19.3798 29.944 19.5318 30.248 19.7598 30.628C19.9118 30.932 20.0638 31.16 20.2918 31.388L22.3438 31.084C23.5598 30.932 24.7758 31.692 25.1558 32.832L25.7638 34.656C26.6758 34.808 27.6638 34.808 28.5758 34.656L29.2598 32.756C29.6398 31.616 30.9318 30.856 32.0718 31.084L33.9718 31.388C34.3518 30.856 34.7318 30.248 34.9598 29.564L33.7438 28.12C32.9838 27.208 32.9078 25.764 33.6678 24.852L34.9598 23.332C34.8078 23.028 34.6558 22.724 34.4278 22.344ZM27.1318 29.944C25.2318 29.944 23.7118 28.424 23.7118 26.524C23.7118 24.624 25.2318 23.104 27.1318 23.104C29.0318 23.104 30.5518 24.624 30.5518 26.524C30.5518 28.424 28.9558 29.944 27.1318 29.944ZM27.1318 28.424C28.1958 28.424 29.0318 27.588 29.0318 26.524C29.0318 25.46 28.1958 24.624 27.1318 24.624C26.0678 24.624 25.2318 25.46 25.2318 26.524C25.2318 27.588 26.0678 28.424 27.1318 28.424Z" fill="white"/>
</svg>
