<svg width="17" height="16" viewBox="0 0 17 16" fill="none" xmlns="http://www.w3.org/2000/svg">
<path fill-rule="evenodd" clip-rule="evenodd" d="M8.28 4.36364C6.2014 4.36364 4.51636 5.99169 4.51636 8C4.51636 10.0083 6.2014 11.6364 8.28 11.6364C10.3586 11.6364 12.0436 10.0083 12.0436 8C12.0436 5.99169 10.3586 4.36364 8.28 4.36364ZM6.02182 8C6.02182 9.20498 7.03284 10.1818 8.28 10.1818C9.52716 10.1818 10.5382 9.20498 10.5382 8C10.5382 6.79501 9.52716 5.81818 8.28 5.81818C7.03284 5.81818 6.02182 6.79501 6.02182 8Z" fill="#B4F12C"/>
<path d="M12.7964 2.90909C12.3806 2.90909 12.0436 3.2347 12.0436 3.63636C12.0436 4.03802 12.3806 4.36364 12.7964 4.36364C13.2121 4.36364 13.5491 4.03802 13.5491 3.63636C13.5491 3.2347 13.2121 2.90909 12.7964 2.90909Z" fill="#B4F12C"/>
<path fill-rule="evenodd" clip-rule="evenodd" d="M3.01091 0C1.34803 0 0 1.30244 0 2.90909V13.0909C0 14.6976 1.34803 16 3.01091 16H13.5491C15.212 16 16.56 14.6976 16.56 13.0909V2.90909C16.56 1.30244 15.212 0 13.5491 0H3.01091ZM13.5491 1.45455H3.01091C2.17947 1.45455 1.50545 2.10577 1.50545 2.90909V13.0909C1.50545 13.8942 2.17947 14.5455 3.01091 14.5455H13.5491C14.3805 14.5455 15.0545 13.8942 15.0545 13.0909V2.90909C15.0545 2.10577 14.3805 1.45455 13.5491 1.45455Z" fill="#B4F12C"/>
</svg>
