<svg width="21" height="17" viewBox="0 0 21 17" fill="none" xmlns="http://www.w3.org/2000/svg">
<path d="M20.3145 1.9506C19.5628 2.2767 18.7679 2.49226 17.9545 2.5906C18.8126 2.07792 19.4557 1.27138 19.7645 0.3206C18.958 0.800663 18.0752 1.1389 17.1545 1.3206C16.539 0.653172 15.7194 0.208897 14.8243 0.0574517C13.9291 -0.0939932 13.009 0.0559587 12.2082 0.48379C11.4075 0.911621 10.7714 1.59313 10.3997 2.42144C10.028 3.24974 9.94174 4.17799 10.1545 5.0606C8.52388 4.97813 6.92889 4.55355 5.47311 3.81446C4.01732 3.07537 2.7333 2.03829 1.70445 0.7706C1.34359 1.40077 1.15397 2.11442 1.15445 2.8406C1.15317 3.51498 1.31867 4.17922 1.63621 4.77416C1.95375 5.36911 2.41347 5.87631 2.97445 6.2506C2.32243 6.23286 1.68434 6.0579 1.11445 5.7406V5.7906C1.11934 6.73549 1.45045 7.64969 2.05177 8.37857C2.65309 9.10744 3.48771 9.60624 4.41445 9.7906C4.05771 9.89917 3.68733 9.95641 3.31445 9.9606C3.05634 9.95759 2.79888 9.93418 2.54445 9.8906C2.80836 10.7034 3.31908 11.4137 4.00553 11.9228C4.69198 12.4318 5.52003 12.7142 6.37445 12.7306C4.93166 13.8659 3.15034 14.4855 1.31445 14.4906C0.980188 14.4917 0.646189 14.4717 0.314453 14.4306C2.18888 15.6409 4.37327 16.2833 6.60445 16.2806C8.14415 16.2966 9.67159 16.0056 11.0976 15.4247C12.5235 14.8437 13.8195 13.9845 14.9097 12.8971C15.9998 11.8097 16.8624 10.516 17.447 9.09151C18.0316 7.66702 18.3265 6.14033 18.3145 4.6006C18.3145 4.4306 18.3145 4.2506 18.3145 4.0706C19.0991 3.48541 19.7759 2.76803 20.3145 1.9506V1.9506Z" fill="#B4F12C"/>
</svg>
